<svg width="377" height="557" viewBox="0 0 377 557" fill="none" xmlns="http://www.w3.org/2000/svg">
<path d="M297.422 489.208C297.476 488.646 297.529 488.114 297.585 487.539C296.469 487.283 295.455 487.532 294.466 487.67C286.996 488.717 279.483 489.354 271.976 490.054C263.667 490.829 255.358 491.609 247.048 492.375C240.269 493 233.487 493.6 226.708 494.225C219.164 494.921 211.621 495.634 204.077 496.336C197.444 496.953 190.811 497.558 184.179 498.182C177.62 498.8 171.064 499.448 164.505 500.057C159.257 500.543 154.005 500.989 148.754 501.457C144.562 501.832 140.37 502.21 136.179 502.595C135.906 502.621 135.638 502.718 135.271 502.806C158.337 506.172 181.28 509.52 204.222 512.867C204.234 512.89 204.245 512.913 204.257 512.935C204.041 512.957 203.825 512.982 203.608 513C203.499 513.009 203.388 513 203.279 513.009C199.264 513.345 195.324 512.704 191.377 512.122C186.02 511.332 180.658 510.57 175.298 509.802C167.185 508.641 159.067 507.511 150.957 506.321C144.768 505.412 138.588 504.43 132.403 503.487C132.164 503.451 131.914 503.483 131.631 503.483C132.051 506.217 132.254 508.91 132.139 511.618C132.111 512.274 132.039 512.933 131.92 513.579C131.849 513.968 131.686 514.397 131.191 514.428C130.634 514.463 130.418 514.025 130.327 513.593C130.192 512.952 130.108 512.293 130.07 511.639C129.93 509.227 129.82 506.814 129.698 504.4C129.69 504.254 129.671 504.106 129.684 503.962C129.735 503.391 129.943 502.779 129 502.484L129.193 502.272C129.536 502.126 129.868 501.9 130.225 501.848C132.324 501.545 134.425 501.234 136.534 501.018C142.322 500.423 148.115 499.87 153.908 499.308C158.826 498.832 163.746 498.367 168.664 497.9C174.566 497.34 180.469 496.781 186.373 496.228C191.438 495.753 196.505 495.299 201.57 494.819C207.327 494.274 213.082 493.708 218.839 493.158C223.794 492.684 228.75 492.225 233.706 491.748C239.426 491.198 245.144 490.63 250.864 490.079C255.819 489.603 260.775 489.14 265.731 488.671C270.833 488.189 275.931 487.67 281.036 487.234C285.303 486.869 289.578 486.607 293.849 486.287C295.085 486.195 296.319 486.061 297.636 485.938C297.699 485.451 297.765 485.064 297.799 484.674C298.492 476.688 299.176 468.7 299.871 460.715C300.221 456.705 300.598 452.696 300.939 448.685C300.986 448.132 301.241 447.784 301.721 447.609C302.407 447.357 303.1 447.111 303.809 446.939C311.024 445.178 318.237 443.401 325.465 441.69C332.728 439.969 340.008 438.319 347.28 436.637C348.1 436.448 348.919 436.262 349.735 436.063C350.638 435.842 351.358 436.201 351.556 436.986C351.755 437.772 351.282 438.425 350.374 438.638C343.071 440.348 335.776 442.091 328.465 443.766C320.654 445.557 312.83 447.287 305.01 449.038C304.263 449.205 303.507 449.329 302.663 449.49C302.536 450.8 302.405 452.102 302.287 453.405C301.635 460.66 300.984 467.915 300.335 475.171C300.035 478.525 299.74 481.88 299.448 485.235C299.426 485.487 299.385 485.77 299.468 485.994C299.638 486.449 299.455 486.808 299.361 487.236C299.161 488.15 299.161 489.107 299.08 490.046C299.047 490.435 299.035 490.826 298.984 491.212C298.925 491.645 298.804 492.069 298.761 492.503C298.332 496.91 297.906 501.319 297.497 505.728C297.39 506.892 297.335 508.061 297.273 509.227C297.229 510.06 296.894 510.294 296.07 510.168C295.099 510.018 294.116 509.939 293.136 509.844C285.558 509.111 277.978 508.403 270.403 507.643C264.649 507.066 258.9 506.438 253.153 505.805C249.551 505.409 245.958 504.955 242.359 504.539C241.78 504.472 241.195 504.471 240.611 504.439C239.917 504.401 239.52 503.998 239.61 503.421C239.692 502.895 240.103 502.68 240.786 502.746C244.572 503.113 248.359 503.47 252.146 503.828C255.68 504.163 259.216 504.494 262.75 504.829C267.851 505.312 272.955 505.77 278.054 506.288C282.35 506.723 286.64 507.222 290.932 507.7C292.529 507.878 294.123 508.078 295.85 508.284C296.305 502.908 296.756 497.602 297.219 492.14C296.643 492.192 296.183 492.207 295.734 492.279C287.239 493.618 278.748 494.993 270.247 496.297C264.93 497.113 259.589 497.777 254.273 498.595C248.993 499.408 243.731 500.328 238.461 501.203C238.25 501.239 238.044 501.301 237.742 501.374C237.799 502.634 237.855 503.861 237.912 505.14C238.125 505.208 238.32 505.301 238.524 505.332C248.036 506.793 257.557 508.202 267.059 509.721C275.406 511.054 283.731 512.521 292.069 513.901C293.982 514.217 295.912 514.421 297.835 514.676C297.907 514.686 297.993 514.667 298.051 514.7C299.194 515.341 300.312 514.869 301.441 514.643C307.219 513.493 313.006 512.397 318.772 511.197C326.258 509.64 333.727 508.006 341.202 506.402C342.131 506.203 343.057 505.99 343.985 505.782C344.163 505.743 344.34 505.666 344.519 505.663C344.975 505.654 345.296 505.869 345.391 506.33C345.474 506.74 345.298 507.05 344.928 507.228C344.768 507.305 344.581 507.333 344.403 507.369C330.658 510.088 316.99 513.161 303.326 516.256C302.007 516.555 300.677 516.813 299.345 517.054C298.958 517.124 298.538 517.124 298.151 517.056C294.912 516.481 291.688 515.82 288.44 515.306C281.5 514.207 274.545 513.21 267.604 512.12C260.989 511.082 254.381 509.994 247.775 508.898C244.563 508.365 241.363 507.761 238.156 507.196C237.836 507.14 237.507 507.093 237.184 507.106C236.315 507.14 235.964 506.975 235.708 506.177C235.531 505.625 235.429 505.036 235.384 504.457C235.291 503.256 235.191 502.047 235.217 500.843C235.249 499.457 235.87 499.099 237.217 499.409C237.729 499.528 238.306 499.463 238.838 499.38C241.838 498.91 244.837 498.431 247.83 497.913C253.238 496.978 258.641 496.012 264.047 495.064C274.5 493.23 284.954 491.402 295.407 489.57C296.052 489.456 296.695 489.336 297.416 489.205L297.422 489.208Z" fill="black"/>
<path d="M223.416 524.283C219.618 524.937 215.877 524.514 212.132 524.044C205.125 523.166 198.112 522.331 191.104 521.46C185.004 520.702 178.908 519.914 172.81 519.146C170.416 518.845 168.038 518.56 165.598 518.733C163.011 518.917 160.403 518.795 157.803 518.828C156.367 518.845 154.959 519.075 153.607 519.573C151.273 520.431 148.95 521.315 146.611 522.161C145.775 522.463 145.398 522.987 145.451 523.885C145.529 525.226 145.235 526.574 145.614 527.919C145.792 528.548 145.223 529.16 144.661 529.124C144.137 529.09 143.686 528.53 143.801 527.923C144.335 525.112 143.708 522.309 143.766 519.503C143.792 518.227 143.77 516.948 143.77 515.643C143.353 515.533 143.085 515.431 142.808 515.396C140.267 515.071 137.726 514.749 135.183 514.446C134.314 514.342 133.521 514.162 133.188 513.212C133.691 512.477 134.407 512.389 135.221 512.498C139.355 513.054 143.492 513.587 147.627 514.14C153.357 514.906 159.085 515.69 164.815 516.453C170.111 517.157 175.41 517.828 180.705 518.539C188.574 519.595 196.44 520.672 204.307 521.741C208.802 522.352 213.296 522.973 217.794 523.575C219.353 523.783 220.918 523.946 222.48 524.135C222.795 524.173 223.106 524.234 223.418 524.284L223.416 524.283Z" fill="black"/>
<path d="M167.055 400.25C168.81 399.102 170.237 397.487 172.533 397.55C172.559 397.215 172.618 396.956 172.591 396.707C172.488 395.745 172.531 394.802 172.76 393.857C172.823 393.602 172.743 393.266 172.622 393.021C171.676 391.12 170.051 389.999 168.071 389.502C166.769 389.175 166.341 388.268 166.056 387.217C165.77 386.164 166.215 385.245 167.036 384.59C167.513 384.21 168.102 383.875 168.69 383.748C170.555 383.346 172.376 383.534 174.026 384.573C176.218 385.954 177.231 387.472 177.879 390.305C180.648 389.922 183.236 390.42 185.413 392.201C185.823 392.051 186.168 391.83 186.524 391.812C188.468 391.712 190.414 391.655 192.361 391.604C192.651 391.596 192.943 391.693 193.301 391.751C194.351 390.737 195.562 389.871 197.021 389.475C197.672 389.299 198.399 389.212 199.059 389.307C200.741 389.548 201.366 391.056 200.451 392.486C200.31 392.705 200.157 392.916 199.983 393.17C200.334 393.305 200.651 393.402 200.943 393.548C201.324 393.738 201.725 393.92 202.048 394.19C202.859 394.866 202.934 395.581 202.163 396.294C201.542 396.866 200.784 397.295 200.063 397.75C199.704 397.975 199.29 398.114 198.797 398.34C199.032 398.705 199.253 399.05 199.474 399.396C199.95 400.143 200.122 400.91 199.614 401.715C199.088 402.548 198.421 403.05 197.345 402.996C195.599 402.909 193.846 402.956 192.098 402.899C191.604 402.883 191.311 403.051 191.026 403.426C190.587 404.002 190.099 404.543 189.614 405.083C189.333 405.397 188.978 405.566 188.548 405.393C186.357 404.509 184.016 404.61 181.732 404.328C180.852 404.22 179.963 404.07 179.122 403.8C178.511 403.605 177.956 403.208 177.406 402.854C177.05 402.626 176.748 402.313 176.366 401.99C174.485 403.025 173.081 404.645 171.31 405.733C171.727 406.724 172.158 407.616 172.475 408.546C172.718 409.257 172.843 410.013 172.965 410.758C173.002 410.981 172.927 411.349 172.77 411.457C171.473 412.347 170.247 413.379 168.656 413.78C168.646 413.817 168.596 413.893 168.617 413.933C169.136 414.946 169.093 415.067 168.042 415.824C163.995 418.734 159.953 421.649 155.911 424.564C155.595 424.792 155.295 425.043 154.813 425.421C186.942 425.283 218.856 425.412 250.883 425.552C250.73 426.072 250.458 426.072 250.213 426.084C249.027 426.141 247.839 426.23 246.652 426.234C229.98 426.28 213.307 426.333 196.636 426.346C182.968 426.356 169.299 426.342 155.633 426.26C154.213 426.252 153.138 426.593 152.062 427.482C150.002 429.183 147.842 430.764 145.726 432.398C145.157 432.838 144.597 433.291 143.835 433.894C160.057 433.894 176.042 433.877 192.026 433.899C207.996 433.92 223.968 433.762 239.976 433.924C240.008 434.587 239.606 434.584 239.264 434.603C238.144 434.666 237.021 434.752 235.901 434.752C227.879 434.754 219.856 434.732 211.834 434.726C190.144 434.71 168.454 434.699 146.764 434.685C146.038 434.685 145.31 434.698 144.586 434.666C144.144 434.646 143.707 434.548 143.16 434.47C141.773 435.542 140.291 436.698 138.798 437.838C136.75 439.399 134.683 440.935 132.649 442.512C132.217 442.847 131.904 443.332 131.506 443.718C130.371 444.816 129.259 445.944 128.059 446.967C127.463 447.476 126.676 447.307 125.977 447.03C125.241 446.738 124.521 446.408 123.786 446.114C121.23 445.091 118.567 444.424 115.855 444.046C112.893 443.633 110.32 442.372 107.852 440.807C106.348 439.852 104.862 438.863 103.61 437.573C103.496 437.455 103.361 437.356 103.226 437.263C103.181 437.232 103.103 437.25 102.935 437.239C103.037 440.787 103.521 444.327 103.031 447.983C103.347 448.097 103.673 448.223 104.004 448.337C108.403 449.846 112.809 451.338 117.2 452.869C118.851 453.444 120.482 454.079 122.102 454.735C123.602 455.342 125.048 456.048 126.209 457.235C126.698 457.735 126.724 457.702 126.411 458.382C125.308 460.778 124.191 463.168 123.127 465.58C121.203 469.944 119.997 474.543 118.77 479.133C117.417 484.2 116.181 489.3 114.714 494.334C112.927 500.466 110.333 506.283 107.35 511.927C106.718 513.123 106.094 514.324 105.436 515.505C104.846 516.563 104.361 516.713 103.233 516.209C101.574 515.469 99.8849 514.817 97.9871 514.374C97.9119 514.877 97.8257 515.347 97.7742 515.821C97.4444 518.872 97.165 521.929 96.7847 524.972C96.3895 528.129 95.4228 531.151 94.4194 534.158C94.1996 534.816 93.8242 535.199 93.0991 535.311C92.59 535.389 92.1106 535.657 91.6174 535.841C91.1459 535.35 90.1287 535.169 88.7282 535.356C88.6499 536.616 88.5261 537.893 88.5014 539.172C88.4469 542.009 88.4538 544.847 88.4152 547.685C88.3973 548.972 88.3538 550.258 88.2745 551.543C88.2349 552.185 88.124 552.831 87.5673 553.448C86.9731 550.311 87.0731 547.254 86.9334 544.215C86.7938 541.182 86.8324 538.154 87.2454 535.08C84.4325 534.591 81.6542 534.107 78.7996 533.61C78.6907 533.759 78.5322 533.965 78.3846 534.178C78.2361 534.393 78.1172 534.548 77.7775 534.557C77.2703 534.569 77.0217 534.911 76.9425 535.462C76.6275 537.667 76.7711 539.876 76.7642 542.087C76.7583 544.096 76.6533 546.107 76.5225 548.113C76.472 548.885 76.3076 549.67 75.7777 550.485C75.6885 550.194 75.6004 550.035 75.5964 549.875C75.5746 548.985 75.5647 548.095 75.5677 547.205C75.5727 545.456 75.5935 543.709 75.5984 541.961C75.6044 539.888 75.5994 537.815 75.5994 535.716C75.5043 535.716 75.3993 535.688 75.3191 535.72C71.2562 537.343 67.0149 538.311 62.7361 539.143C56.4664 540.361 50.1392 541.007 43.7526 541.059C43.2901 541.063 42.8226 541.095 42.3669 541.037C41.0506 540.868 39.8373 541.152 38.6229 541.659C36.3409 542.611 33.9776 543.366 31.8243 544.616C31.4875 544.813 31.0943 544.912 30.6615 545.081C30.499 548.704 31.1201 552.445 29.9295 556.028C29.8473 556.035 29.7651 556.043 29.6829 556.049C29.6066 555.897 29.4898 555.752 29.461 555.592C29.3729 555.106 29.2877 554.614 29.257 554.122C28.9658 549.544 28.6825 544.965 28.4091 540.386C28.3705 539.733 28.4042 539.077 28.4042 538.446C26.7481 537.755 25.2099 537.084 23.6479 536.478C22.9922 536.223 22.2721 536.066 21.9403 537.28C21.3649 536.412 20.7597 535.905 20.9934 534.999C21.0489 534.783 21.0311 534.542 21.0192 534.315C20.7795 529.734 20.5537 525.152 20.2872 520.572C19.9356 514.509 19.5285 508.449 19.1878 502.386C18.9342 497.873 18.5915 493.358 19.0462 488.835C19.1601 487.696 19.2106 486.55 19.2968 485.311C19.2076 485.272 19.0075 485.173 18.7995 485.101C16.2758 484.223 13.7511 483.349 11.2254 482.477C9.99816 482.054 8.73828 481.853 7.43481 481.866C6.07687 481.879 4.74071 481.787 3.49271 481.116C2.56365 480.617 1.89111 479.996 1.75938 478.889C1.63161 477.815 1.37408 476.75 1.31267 475.673C1.16311 473.039 1.0601 470.4 1.00364 467.762C0.964025 465.943 1.25324 464.15 1.59001 462.361C1.90102 460.709 2.15458 459.044 2.35168 457.375C2.44776 456.565 2.39427 455.73 2.34277 454.91C2.18231 452.329 2.2249 449.749 2.75679 447.219C3.66604 442.894 4.55847 438.56 5.68761 434.291C6.91778 429.638 8.35595 425.037 9.80205 420.445C11.0877 416.364 13.0716 412.593 15.322 408.965C16.4937 407.076 17.4287 405.096 18.129 402.979C18.6975 401.262 19.4612 399.61 20.1525 397.934C20.5368 397.002 21.243 396.379 22.1414 395.956C22.4098 395.829 22.6703 395.679 22.9486 395.581C24.9553 394.871 26.5777 393.582 28.1209 392.173C28.6568 391.684 29.1688 391.167 29.6938 390.666C29.885 390.483 30.0652 390.282 30.2821 390.138C31.7282 389.171 33.1298 388.122 34.6482 387.287C36.1755 386.448 37.8088 385.792 39.4242 385.128C40.0165 384.884 40.2988 384.602 40.3672 383.935C40.4801 382.832 40.8 382.553 41.9034 382.318C42.5135 382.188 43.1346 382.106 43.8873 381.98C43.7308 381.528 43.6347 381.05 43.4099 380.642C42.7295 379.408 41.9915 378.205 41.2923 376.982C41.0476 376.554 40.8456 376.101 40.6287 375.657C40.285 374.954 39.9284 374.255 39.6085 373.541C39.4005 373.077 39.1023 372.756 38.6725 372.453C38.0376 372.006 37.3551 371.486 36.9827 370.832C35.2722 367.826 34.2381 364.621 34.5659 361.097C34.6085 360.638 34.6491 360.168 34.7809 359.731C35.3851 357.737 35.3623 355.684 35.3237 353.645C35.2028 347.222 37.2274 341.597 41.4012 336.722C43.0583 334.787 44.8164 332.981 47.046 331.693C47.2698 331.563 47.456 331.366 47.5174 331.316C47.5709 323.652 47.6204 316.128 47.6848 308.605C47.6888 308.143 47.5709 307.599 48.1137 307.26C48.5 307.492 48.3801 307.858 48.3861 308.154C48.4356 310.696 48.498 313.237 48.499 315.779C48.501 320.367 48.4633 324.955 48.4415 329.543C48.4396 329.896 48.4415 330.248 48.4415 330.688C49.9768 329.996 51.3624 329.231 52.8392 328.743C54.2952 328.262 55.8434 328.059 57.4757 327.707C57.4757 327.244 57.4757 326.792 57.4757 326.338C57.4658 315.577 57.4529 304.814 57.4509 294.053C57.4509 293.228 57.549 292.405 57.5747 291.581C57.5965 290.893 57.9432 290.437 58.6028 289.999C59.0277 302.535 58.8098 314.958 58.7078 327.416C59.0733 327.416 59.3259 327.425 59.5784 327.415C61.0265 327.356 62.4756 327.237 63.9237 327.247C65.4074 327.259 66.8901 327.401 68.3739 327.479C70.0151 327.566 71.5266 328.155 73.0499 328.692C75.1646 329.437 77.2713 330.206 79.39 330.937C81.0777 331.519 82.4545 332.513 83.7589 333.736C85.2625 335.145 86.4471 336.716 87.2286 338.606C87.8684 340.152 88.4558 341.722 89.1452 343.247C89.9702 345.07 90.4447 346.987 90.6962 348.948C90.8805 350.382 90.8547 351.843 90.935 353.292C90.9944 354.37 91.0766 355.446 91.1439 356.524C91.1647 356.852 91.1935 357.182 91.1756 357.507C91.0449 360.012 90.8032 362.517 90.7993 365.022C90.7973 366.719 90.0772 368.287 90.1505 369.974C90.1634 370.268 90.0643 370.565 90.0722 370.86C90.1148 372.619 89.4047 374.092 88.2181 375.301C87.3742 376.162 86.9602 377.23 86.5283 378.274C85.3655 381.091 84.3354 383.961 83.1884 386.785C82.819 387.695 82.2445 388.523 81.7721 389.392C81.4571 389.97 81.155 390.556 80.8648 391.103C80.9084 391.22 80.9133 391.305 80.9569 391.337C83.4341 393.139 85.9083 394.947 88.4013 396.727C88.9887 397.147 89.6176 397.53 90.2733 397.83C92.4573 398.832 94.4125 400.154 96.1231 401.839C96.2627 401.977 96.4143 402.104 96.5519 402.227C96.9125 402.049 97.2463 401.756 97.585 401.75C97.9842 401.743 98.416 401.932 98.7835 402.129C100.295 402.943 101.784 403.795 103.286 404.624C104.414 405.246 105.298 406.108 105.916 407.241C107.194 409.582 109.007 411.421 111.224 412.879C114.339 414.928 117.457 416.974 120.567 419.032C121.227 419.469 121.852 419.955 122.427 420.371C123.005 420.371 123.523 420.371 124.041 420.371C124.172 420.371 124.357 420.422 124.426 420.354C125.071 419.729 125.565 420.223 126.165 420.634C127.117 420.122 128.118 419.629 129.076 419.062C132.204 417.207 135.179 415.134 137.97 412.795C142.398 409.084 146.888 405.447 151.289 401.704C152.63 400.563 154.089 400.014 155.797 400.016C156.348 400.016 156.78 399.875 157.218 399.51C157.873 398.962 158.598 398.49 159.33 398.045C160.308 397.448 161.244 397.166 162.481 397.651C163.978 398.24 165.375 398.908 166.616 399.919C166.743 400.022 166.877 400.118 167.059 400.255L167.055 400.25ZM39.9284 386.574C37.5978 387.773 35.1919 388.487 33.0862 389.958C34.1173 391.407 34.8324 392.921 35.2454 394.563C35.6327 396.103 35.9318 397.66 35.6248 399.26C35.5505 399.645 35.5148 400.141 34.9988 400.127C34.4421 400.113 34.5283 399.592 34.4837 399.214C34.3728 398.266 34.3352 397.302 34.149 396.369C33.8181 394.713 33.2872 393.113 32.3879 391.666C31.9174 390.909 31.541 390.854 30.8754 391.431C30.402 391.841 29.9652 392.294 29.5234 392.74C27.7653 394.512 25.8834 396.098 23.4449 396.871C23.1963 396.95 22.9724 397.105 22.7327 397.215C22.1701 397.473 21.7343 397.86 21.5085 398.446C20.9033 400.012 20.211 401.553 19.7296 403.157C19.0402 405.456 18.0557 407.592 16.7463 409.597C14.3523 413.262 12.4248 417.157 11.1362 421.35C10.1388 424.597 9.23946 427.876 8.1955 431.108C7.24068 434.062 6.3958 437.041 5.74605 440.076C5.31123 442.107 4.89919 444.144 4.43664 446.171C3.77104 449.09 3.54521 452.036 3.78589 455.02C3.82254 455.478 3.83641 455.949 3.77896 456.403C3.59077 457.874 3.42437 459.353 3.13911 460.808C2.53888 463.869 2.22193 466.932 2.51709 470.056C2.63199 471.267 2.54086 472.495 2.54879 473.716C2.55077 474.079 2.54285 474.444 2.5894 474.803C2.77759 476.234 2.9846 477.662 3.18666 479.102C4.67732 479.894 6.25812 480.383 7.98849 480.342C9.15329 480.315 10.2814 480.561 11.3838 480.938C14.6613 482.056 17.9368 483.179 21.2213 484.278C25.1425 485.589 29.1579 486.503 33.2555 487.055C36.6301 487.51 40.0225 487.692 43.4238 487.762C44.3073 487.78 45.1898 487.846 46.0376 487.888C46.7656 486.798 47.1767 484.31 46.8825 482.857H46.0852C46.0852 483.453 46.1109 483.979 46.0773 484.502C46.0475 484.961 45.9931 485.426 45.8742 485.867C45.6157 486.83 44.9323 487.039 44.1765 486.395C43.9299 486.185 43.6843 485.929 43.5466 485.642C43.1643 484.843 42.7403 484.044 42.5106 483.196C41.7112 480.257 42.2827 477.42 43.4228 474.694C44.5391 472.025 46.1941 469.672 48.0622 467.475C48.7922 466.616 49.6856 466.025 50.8831 466.07C50.9148 466.071 50.9504 465.986 50.998 465.924C50.7186 465.456 50.2482 465.432 49.7906 465.456C48.7694 465.508 47.7462 465.56 46.732 465.675C44.3083 465.953 41.9054 466.449 39.448 466.37C37.2709 466.3 35.0919 466.264 32.9178 466.14C30.4654 465.999 28.2457 465.05 26.0647 464.005C25.7596 463.859 25.4476 463.725 24.9554 463.501C25.0504 464.172 25.1029 464.622 25.1812 465.068C25.3208 465.861 25.1336 466.577 24.6849 467.226C24.5027 467.489 24.2036 467.667 23.9253 467.457C23.7559 467.33 23.6311 467.009 23.6519 466.791C23.6915 466.37 23.8341 465.956 23.9599 465.547C24.1957 464.779 24.1907 464.056 23.6717 463.388C23.531 463.207 23.434 462.993 23.3171 462.793C22.9932 462.238 22.5812 462.158 22.1761 462.652C21.2559 463.774 20.3259 464.894 19.4929 466.08C17.6268 468.739 16.1847 471.628 15.0278 474.662C14.9684 474.82 14.8515 474.954 14.7614 475.1C14.697 475.088 14.6326 475.075 14.5682 475.063C14.5514 474.587 14.4494 474.093 14.5365 473.637C14.7336 472.605 14.8951 471.536 15.3022 470.581C16.4323 467.928 17.9368 465.487 19.8702 463.328C20.1684 462.995 20.4645 462.659 20.7953 462.288C19.378 461.778 18.8976 461.914 18.0418 462.85C17.1296 463.848 16.1857 464.818 15.2348 465.779C14.9575 466.06 14.6069 466.268 14.2899 466.509C14.2225 466.236 14.2622 466.083 14.3454 465.957C15.2566 464.583 16.153 463.197 17.0989 461.847C17.812 460.829 18.8461 460.496 20.0545 460.679C20.4061 460.733 20.7518 460.819 21.1361 460.898C21.2579 460.585 21.3748 460.351 21.4411 460.103C22.187 457.3 22.9199 454.493 23.6667 451.69C24.4136 448.885 25.1386 446.074 25.9359 443.284C26.7134 440.565 28.0585 438.108 29.5442 435.714C31.5935 432.412 33.2189 428.926 33.8984 425.058C33.9667 424.668 33.9974 424.264 34.1282 423.896C34.2005 423.692 34.4461 423.55 34.6145 423.38C34.7858 423.554 35.082 423.713 35.1058 423.905C35.1701 424.423 35.1731 424.962 35.1028 425.48C34.8274 427.512 34.3896 429.507 33.5537 431.396C33.4744 431.574 33.4556 431.78 33.3784 432.099C34.4451 431.338 35.3712 430.65 36.325 430.006C36.7034 429.751 37.1303 429.538 37.5651 429.41C37.7493 429.356 38.0811 429.515 38.2168 429.682C38.3109 429.798 38.2218 430.107 38.1455 430.304C38.092 430.443 37.9365 430.557 37.8048 430.653C36.5796 431.55 35.3256 432.407 34.1331 433.343C33.5319 433.816 32.6147 433.672 32.1858 434.398C31.8005 435.051 31.5004 435.757 31.0874 436.391C28.9737 439.634 27.5474 443.159 26.6144 446.906C25.6665 450.714 24.678 454.514 23.6816 458.31C23.433 459.257 23.0853 460.177 22.8318 460.959C23.3656 461.259 23.8292 461.521 24.2957 461.779C24.4096 461.841 24.5294 461.896 24.6513 461.941C25.8874 462.396 27.1205 462.86 28.3626 463.297C29.2629 463.614 30.1554 464.003 31.0854 464.177C34.8978 464.892 38.7517 465.053 42.6195 464.85C45.0254 464.725 47.4283 464.556 49.8322 464.405C50.5968 464.356 51.3109 464.514 51.7883 465.14C52.1816 465.657 52.5708 466.222 52.7689 466.828C52.9502 467.382 52.8719 468.02 52.9115 468.676C53.7198 468.826 54.635 468.872 55.4511 469.18C56.4248 469.548 57.0715 469.278 57.7263 468.586C59.3378 466.886 60.982 465.215 62.6113 463.531C64.4229 461.658 66.178 459.726 68.362 458.254C68.5997 458.094 68.772 457.747 68.8483 457.453C69.4149 455.284 69.919 453.098 70.5103 450.936C70.755 450.042 70.647 449.288 70.1746 448.501C67.5498 444.134 64.6408 439.967 61.2563 436.16C58.4602 433.015 55.2758 430.294 51.7071 428.038C50.781 427.453 50.7414 427.304 51.0504 426.25C51.0871 426.124 51.1386 426.002 51.1782 425.876C51.6249 424.458 52.2846 423.141 53.2552 421.782C52.349 421.89 51.6021 421.928 50.8781 422.077C49.6529 422.328 48.4435 422.656 47.2252 422.939C46.7429 423.051 46.2258 423.195 45.8366 422.75C45.482 422.346 45.6355 421.885 45.7979 421.441C45.9495 421.024 46.0882 420.602 46.2486 420.136C45.7167 419.986 45.3057 419.875 44.8986 419.754C44.3152 419.582 44.0171 419.249 43.8794 418.59C42.6938 412.941 41.5112 407.292 40.2127 401.669C39.1271 396.967 38.9112 392.276 39.8729 387.54C39.9234 387.29 39.9066 387.028 39.9323 386.577L39.9284 386.574ZM57.3766 502.537C58.381 502.865 59.3605 503.146 60.3114 503.502C66.2612 505.723 72.3982 507.263 78.6045 508.546C83.8035 509.622 89.0253 510.594 94.2124 511.722C97.5632 512.451 100.88 513.347 103.915 515.038C103.956 515.061 104.031 515.019 104.005 515.024C104.746 513.498 105.45 512.012 106.183 510.542C109.001 504.895 111.511 499.119 113.264 493.047C114.636 488.296 115.896 483.512 117.175 478.734C118.713 472.988 120.554 467.352 123.119 461.974C123.729 460.696 124.432 459.462 125.095 458.21C125.212 457.987 125.346 457.771 125.525 457.461C124.269 456.881 123.108 456.237 121.874 455.794C117.746 454.315 113.592 452.907 109.448 451.473C102.967 449.23 96.4529 447.079 90.0178 444.711C86.1064 443.272 82.195 441.92 78.0736 441.243C76.9415 441.057 75.8044 440.9 74.5634 440.713C73.1222 446.628 71.7058 452.439 70.2657 458.346C73.7225 460.105 76.6216 462.76 79.5395 465.387C80.421 466.181 81.2768 467.017 82.0395 467.921C82.6496 468.644 83.2013 469.454 83.6025 470.308C84.2899 471.772 83.9442 472.97 82.7199 473.995C82.6506 474.054 82.607 474.144 82.5327 474.246C83.0834 475.113 83.6649 475.955 84.169 476.841C84.8138 477.973 85.2645 479.139 84.9129 480.516C84.5672 481.868 83.7015 482.15 82.4169 481.686C81.6027 481.393 80.9163 480.865 80.3616 480.183C79.7386 479.414 79.1047 478.654 78.4777 477.887C76.8821 475.936 74.8744 474.511 72.6646 473.352C72.2744 473.147 71.8485 473.012 71.2552 472.769C72.7676 475.949 75.1309 478.191 77.0098 480.557C77.4873 480.655 77.8062 480.722 78.1261 480.787C78.0419 481.135 77.9587 481.482 77.8617 481.888C78.0241 482.232 78.245 482.64 78.4114 483.069C78.8393 484.174 79.0047 485.302 78.5758 486.45C78.2093 487.43 77.5269 487.893 76.4789 487.946C75.7955 487.982 75.1061 488.024 74.4336 488.141C72.5289 488.476 70.9897 487.976 69.8645 486.332C69.2693 485.461 68.6354 484.611 67.9529 483.808C67.3824 483.136 66.7257 482.533 66.0908 481.917C65.4341 481.281 64.6844 481.114 63.781 481.574C62.2508 488.7 60.0975 495.682 57.3796 502.539L57.3766 502.537ZM80.3745 510.751C80.217 510.692 80.0704 510.606 79.9139 510.581C77.8002 510.223 75.6955 509.793 73.5699 509.539C69.8289 509.091 66.0641 509.057 62.2993 509.081C61.0483 509.089 59.7934 509.056 58.5454 508.968C57.5519 508.898 57.3073 508.617 57.1805 507.617C57.1013 506.996 57.0369 506.368 57.0339 505.743C57.029 504.873 56.9042 504.036 56.4753 503.275C56.2267 502.834 56.2009 502.395 56.3495 501.944C56.5753 501.255 56.8289 500.576 57.0824 499.896C57.4172 499.001 57.7906 498.119 58.0987 497.214C59.7478 492.371 61.0315 487.424 62.2072 482.448C62.2636 482.208 62.2725 481.956 62.3082 481.668C62.0279 481.655 61.8328 481.633 61.6386 481.638C60.1212 481.679 58.6018 481.693 57.0864 481.78C55.9899 481.841 55.251 481.405 54.7885 480.428C54.5954 480.019 54.3656 479.627 54.1051 479.14C53.697 479.951 53.3513 480.659 52.9878 481.359C52.2113 482.851 51.4605 483.251 49.7955 483.094C49.2498 483.042 48.701 483.018 48.0275 482.972C48.0275 483.642 48.0523 484.197 48.0216 484.749C47.9819 485.439 47.9503 486.138 47.8185 486.814C47.5323 488.288 46.5705 489.084 45.0808 489.131C44.2568 489.157 43.4307 489.163 42.6056 489.147C39.9343 489.096 37.263 489.023 34.5917 488.974C30.7318 488.904 26.8709 488.845 23.011 488.785C22.2028 488.773 21.3936 488.783 20.5685 488.783C20.5477 488.971 20.5309 489.099 20.521 489.228C20.212 493.325 20.5695 497.407 20.7884 501.492C21.0717 506.764 21.4709 512.031 21.7066 517.304C21.9463 522.678 22.0483 528.059 22.2137 533.436C22.2246 533.787 22.2603 534.136 22.289 534.55C23.7321 534.462 24.885 535.024 26.0469 535.601C26.8719 536.011 27.7386 536.342 28.6003 536.673C28.9925 536.823 29.4283 536.857 29.8235 537C30.3148 537.177 30.7655 537.487 31.2657 537.613C35.3692 538.642 39.5104 539.461 43.7625 539.467C51.3179 539.477 58.7752 538.561 66.1433 536.939C69.2653 536.253 72.3863 535.531 75.3488 534.274C76.163 533.928 76.989 533.61 77.6933 533.326C78.138 532.412 78.557 531.561 78.965 530.706C79.1057 530.411 79.285 530.113 79.3355 529.798C79.6326 527.944 80.0466 526.092 80.1398 524.224C80.318 520.633 80.3111 517.033 80.3725 513.436C80.3874 512.551 80.3745 511.664 80.3745 510.751ZM86.9899 369.64C86.9453 369.048 86.8106 368.428 86.8681 367.826C87.085 365.561 86.6709 363.367 86.2213 361.172C85.9895 360.04 85.8023 358.908 85.8568 357.739C85.9281 356.198 85.939 354.684 85.5963 353.131C85.2159 351.406 85.2308 349.594 85.0783 347.819C84.9198 345.972 84.6751 344.145 83.9422 342.421C83.3608 341.054 82.8091 339.666 81.774 338.559C81.5383 338.306 81.2243 338.087 80.9044 337.958C79.9565 337.577 78.9779 337.274 78.03 336.894C77.0277 336.492 75.9867 336.374 74.9259 336.375C74.2058 336.375 73.4867 336.415 72.7676 336.454C72.11 336.49 71.4424 336.484 70.7996 336.604C68.3977 337.056 66.1037 337.851 63.8791 338.859C63.0748 339.222 62.2676 339.598 61.4277 339.857C60.1183 340.261 59.1704 340.935 58.7464 342.332C58.1551 344.285 57.1419 346.026 55.669 347.458C54.8895 348.216 54.0793 348.95 53.2305 349.629C52.4074 350.288 51.5239 350.871 50.6533 351.469C50.3561 351.673 50.2135 351.9 50.2006 352.276C50.1689 353.165 50.0778 354.052 50.0203 354.94C49.8668 357.315 49.5469 359.667 49.021 361.987C48.5792 363.937 47.8928 365.79 46.6527 367.382C46.3209 367.807 45.8712 368.179 45.4027 368.451C44.8055 368.798 44.2498 368.581 43.9101 367.981C43.7982 367.782 43.7427 367.552 43.6526 367.339C42.676 365.023 41.532 362.791 40.1334 360.704C39.6075 359.918 38.9696 359.178 38.2664 358.546C37.5602 357.912 36.8936 358.076 36.534 358.947C36.1992 359.759 35.9348 360.63 35.8229 361.499C35.5951 363.262 35.9298 364.978 36.5558 366.636C36.8569 367.434 37.1234 368.248 37.4779 369.023C38.1564 370.506 39.028 371.786 40.8614 371.994C41.2388 372.037 41.5884 372.296 41.9589 372.433C42.358 372.581 42.7592 372.729 43.1712 372.829C43.7685 372.975 43.8309 373.077 43.8427 373.693C43.8566 374.443 43.9339 375.191 43.9883 375.94C44.0052 376.169 44.0706 376.398 44.0587 376.624C43.9576 378.523 44.6995 380.152 45.6117 381.753C46.2793 382.924 46.8261 384.164 47.4411 385.365C47.771 386.007 48.0622 386.686 48.4901 387.259C51.4169 391.18 54.9975 394.435 58.8901 397.366C60.3025 398.43 61.8724 399.19 63.5592 399.696C64.0554 399.844 64.5982 399.947 65.1103 399.917C66.4266 399.838 67.734 399.67 68.985 399.2C70.3836 398.673 71.6959 398.021 72.8389 397.024C74.702 395.402 76.7503 394.002 78.3737 392.096C79.4157 390.873 80.1081 389.457 80.946 388.118C82.504 385.629 83.4707 382.901 84.3295 380.123C84.5593 379.38 84.6355 378.638 84.3116 377.898C84.1066 377.429 84.2799 377.194 84.7544 377.01C85.1971 376.839 85.6448 376.586 85.9826 376.257C86.5234 375.731 86.9532 375.094 87.4673 374.538C88.3934 373.534 89.0223 372.426 89.0035 371.006C88.9946 370.315 89.0956 369.623 89.1293 368.931C89.1392 368.719 89.0917 368.505 89.0511 368.104C88.6489 368.495 88.3676 368.755 88.1022 369.032C87.8179 369.328 87.6327 369.775 86.9869 369.636L86.9899 369.64ZM127.862 421.417C128.663 422.469 129.428 423.42 130.132 424.413C130.819 425.384 131.459 426.391 131.585 427.62C130.405 426.135 129.225 424.649 128.045 423.163C127.986 423.199 127.926 423.234 127.867 423.27C127.965 423.534 128.06 423.798 128.162 424.06C128.689 425.412 129.271 426.745 129.728 428.12C130.038 429.053 130.211 430.036 130.374 431.01C130.503 431.783 130.418 432.554 129.978 433.288C129.803 432.387 129.703 431.54 129.47 430.729C128.719 428.122 127.659 425.633 126.376 423.243C126.096 422.721 125.738 422.242 125.428 421.736C125.086 421.176 124.623 421.001 123.946 421.264C124.607 423.146 124.809 425.107 124.932 427.077C124.98 427.83 124.944 428.596 124.868 429.349C124.814 429.875 124.7 430.42 124.167 430.947C124.146 430.656 124.13 430.538 124.129 430.419C124.105 427.964 123.721 425.559 123.143 423.179C123.023 422.686 122.854 422.265 122.399 421.963C121.495 421.362 120.643 420.68 119.731 420.093C116.458 417.986 113.135 415.953 109.894 413.797C107.671 412.319 105.834 410.43 104.587 408.024C104.101 407.088 103.372 406.397 102.445 405.892C101.026 405.119 99.6234 404.312 98.211 403.526C98.0902 403.459 97.9426 403.439 97.7583 403.382C98.0099 404.768 98.2754 406.052 98.4675 407.347C98.6557 408.619 98.7874 409.9 98.9004 411.18C98.939 411.619 98.9786 412.122 98.4576 412.375C97.9703 412.26 97.9971 411.859 97.9287 411.511C97.5395 409.504 97.1462 407.497 96.7609 405.488C96.6282 404.796 96.44 404.124 95.8943 403.641C94.7602 402.635 93.6865 401.534 92.4444 400.682C90.2822 399.201 87.7367 398.348 85.6636 396.655C85.9023 397.221 86.2153 397.707 86.5174 398.2C88.1715 400.9 89.8841 403.568 91.454 406.316C92.6148 408.348 93.6221 410.469 94.6334 412.581C95.3584 414.096 96.0201 415.646 96.6282 417.213C97.0323 418.255 97.3215 419.346 97.6018 420.43C97.7702 421.082 97.4879 421.322 96.8322 421.352C95.5209 421.41 94.2095 421.501 92.901 421.619C92.6128 421.645 92.2483 421.649 92.0136 422.017C93.0694 422.915 94.0797 423.812 95.1356 424.65C95.5803 425.002 95.7734 425.384 95.6694 425.924C95.613 426.215 95.5486 426.505 95.4713 426.791C94.7374 429.53 94.0153 432.273 93.2606 435.005C92.4583 437.91 92.1126 440.884 91.8284 443.969C95.0553 445.257 98.3507 446.342 101.757 447.543C101.787 446.831 101.846 446.276 101.826 445.724C101.731 443.053 101.651 440.38 101.497 437.711C101.24 433.231 101.017 428.745 100.007 424.346C99.8958 423.864 99.8027 423.371 99.7878 422.881C99.7809 422.667 99.9384 422.348 100.117 422.251C100.43 422.081 100.683 422.33 100.822 422.61C100.953 422.875 101.032 423.164 101.127 423.444C102.205 426.637 102.529 429.956 102.677 433.289C102.728 434.425 103.086 435.18 103.946 435.968C105.412 437.313 106.904 438.591 108.587 439.648C110.638 440.935 112.761 442.045 115.164 442.533C117.264 442.96 119.379 443.337 121.448 443.888C123.033 444.31 124.565 444.946 126.102 445.532C126.762 445.784 127.369 445.95 127.919 445.362C128.795 444.427 129.923 443.734 130.563 442.57C130.683 442.351 130.921 442.187 131.128 442.028C134.954 439.098 138.811 436.211 142.601 433.236C145.873 430.669 149.04 427.969 152.303 425.39C157.274 421.46 162.271 417.56 167.692 414.249C167.741 414.218 167.765 414.144 167.818 414.066C167.733 413.835 167.656 413.581 167.547 413.344C165.584 409.054 162.731 405.477 158.903 402.712C158.108 402.137 157.183 401.743 156.311 401.277C156.141 401.186 155.936 401.077 155.76 401.096C154.719 401.211 153.701 401.275 152.81 402.031C148.406 405.77 143.939 409.433 139.533 413.169C136.176 416.016 132.681 418.657 128.835 420.813C128.521 420.989 128.221 421.19 127.859 421.415L127.862 421.417ZM76.0847 486.95C77.5001 486.625 77.6487 485.708 77.5219 484.813C77.4318 484.174 77.2357 483.51 76.9217 482.948C76.4096 482.031 75.8064 481.156 75.1656 480.321C73.6601 478.357 72.0763 476.449 70.9273 474.239C70.6549 473.715 70.4123 473.166 70.237 472.604C70.0349 471.955 70.2855 471.607 70.9561 471.691C71.6325 471.775 72.316 471.963 72.9459 472.225C75.6796 473.365 77.9845 475.083 79.7861 477.453C80.5052 478.399 81.2263 479.343 81.9751 480.265C82.2534 480.609 82.613 480.886 82.918 481.177C83.9848 480.388 84.1641 479.811 83.6748 478.727C83.3905 478.098 83.0716 477.473 82.6803 476.906C81.9692 475.876 81.254 474.835 80.429 473.898C78.8818 472.141 77.2674 470.443 75.6559 468.743C74.6802 467.714 73.6541 466.732 72.6547 465.725C72.4428 465.511 72.2011 465.258 72.4338 464.953C72.7191 464.58 73.0351 464.836 73.2926 465.027C73.6363 465.282 73.9641 465.562 74.2741 465.858C76.7315 468.202 79.3929 470.338 81.5423 472.997C81.6205 473.094 81.7374 473.161 81.8295 473.237C82.613 472.677 82.7586 472.363 82.6655 471.487C82.5209 470.127 81.7562 469.086 80.8559 468.156C78.6481 465.878 76.3135 463.732 73.7324 461.882C72.3714 460.906 70.9224 460.054 69.4604 459.113C68.8909 459.557 68.364 459.898 67.9202 460.327C66.283 461.909 64.6655 463.511 63.057 465.122C61.8209 466.359 60.6204 467.632 59.3803 468.866C58.8911 469.353 58.3493 469.792 57.8134 470.23C57.3221 470.631 56.7714 470.753 56.1445 470.538C55.6463 470.367 55.1372 470.198 54.6191 470.126C53.6881 469.995 52.8125 469.768 52.135 469.123C50.1174 469.649 49.3023 472.314 49.6044 474.82C49.6935 474.841 49.7856 474.878 49.8797 474.884C52.3549 475.036 54.0397 476.368 55.2134 478.458C55.4392 478.86 55.6542 479.271 55.8463 479.69C56.0949 480.231 56.4644 480.49 57.0894 480.432C57.7451 480.37 58.4097 480.41 59.0674 480.369C60.3173 480.291 61.5782 480.271 62.8104 480.073C64.3327 479.827 65.766 479.798 66.9743 480.919C67.6231 481.521 68.2798 482.13 68.8325 482.818C69.5961 483.766 70.2687 484.791 70.9759 485.786C71.9317 487.131 73.3134 487.326 74.9784 487.299C74.6208 486.695 74.3673 486.205 74.0572 485.752C72.1724 483.005 70.2746 480.267 68.3838 477.524C68.1599 477.199 67.9242 476.875 67.7558 476.52C67.6895 476.381 67.7311 476.07 67.8351 475.999C67.9906 475.892 68.2778 475.847 68.4472 475.92C68.675 476.019 68.8711 476.234 69.0325 476.436C69.403 476.9 69.7695 477.37 70.0943 477.865C71.794 480.459 73.4768 483.064 75.1725 485.66C75.4588 486.098 75.7767 486.515 76.0847 486.95ZM71.1581 447.437C71.585 445.808 71.9812 444.348 72.3378 442.88C72.3843 442.689 72.2674 442.429 72.1615 442.237C71.6335 441.287 71.0759 440.353 70.544 439.405C69.9329 438.315 69.2554 437.251 68.7582 436.109C68.2689 434.986 67.7925 433.868 67.0506 432.888C66.0165 431.522 64.931 430.193 63.9425 428.795C62.4964 426.749 61.0939 424.671 59.7191 422.575C58.6335 420.921 57.6589 419.193 56.5634 417.546C54.2675 414.091 52.4837 410.391 51.0673 406.5C49.8371 403.123 48.5317 399.787 46.7548 396.634C45.063 393.631 44.026 390.353 43.3891 386.956C43.2405 386.166 43.3663 385.449 43.7962 384.78C43.9745 384.503 44.1845 384.245 44.3538 383.963C44.6302 383.503 44.4915 383.198 43.9487 383.168C43.5615 383.146 43.1573 383.193 42.778 383.284C41.7994 383.514 41.8242 383.534 41.7083 384.524C41.5478 385.898 41.3497 387.269 41.1694 388.642C40.8 391.461 40.5217 394.302 40.8792 397.126C41.1595 399.341 41.7301 401.521 42.2015 403.71C43.0474 407.642 43.9269 411.567 44.7639 415.5C44.9669 416.456 45.0581 417.435 45.1997 418.397C46.207 418.602 47.1034 418.83 48.0136 418.958C48.8932 419.081 49.7916 419.072 50.6751 419.174C51.8844 419.313 53.0938 419.472 54.2913 419.687C54.836 419.784 55.3778 419.985 55.879 420.226C56.612 420.58 56.6486 421.322 55.9949 421.796C55.8364 421.912 55.6284 421.967 55.4838 422.094C54.8975 422.615 54.1912 423.067 53.7822 423.706C53.2057 424.607 52.8531 425.652 52.3985 426.649C52.5758 426.785 52.6689 426.874 52.7768 426.939C55.9533 428.815 58.8049 431.11 61.2712 433.84C64.7527 437.692 67.7558 441.912 70.4559 446.346C70.6559 446.675 70.8719 446.994 71.1581 447.439V447.437ZM92.9298 534.135C95.7041 527.627 95.918 520.788 96.6094 513.983C91.6669 512.678 86.7561 511.864 81.8483 511.079C81.8008 511.262 81.7711 511.325 81.7711 511.386C81.8146 514.88 81.8662 518.375 81.9058 521.869C81.9375 524.658 81.4492 527.385 80.8658 530.095C80.7647 530.566 80.4924 531 80.2804 531.443C80.1734 531.667 80.0249 531.871 79.8218 532.203C84.1997 533.427 88.5479 533.978 92.9298 534.135ZM81.982 404.15C81.9969 404.064 82.0316 403.995 82.0147 403.943C81.1689 401.307 80.32 398.673 79.4662 396.039C79.385 395.788 79.2444 395.557 79.174 395.304C79.0829 394.976 79.0472 394.612 79.4316 394.448C79.8386 394.275 80.1318 394.5 80.319 394.855C80.4409 395.088 80.5429 395.334 80.629 395.582C81.4313 397.885 82.2574 400.181 83.022 402.498C84.4602 406.858 85.5567 411.311 86.2847 415.842C86.7026 418.445 86.9701 421.075 87.2018 423.703C87.4158 426.133 87.6277 428.576 87.5951 431.011C87.5554 433.976 87.2692 436.939 87.0652 439.901C87.0186 440.58 86.872 441.251 86.771 441.93C88.0517 442.427 89.2739 442.902 90.6012 443.417C90.6764 442.749 90.7369 442.168 90.8062 441.59C90.9201 440.641 90.9657 439.676 91.1707 438.747C92.0364 434.82 92.8307 430.876 94.0718 427.04C94.6136 425.365 94.6819 425.716 93.3527 424.563C92.0324 423.417 90.6556 422.336 89.3036 421.227C88.7103 420.74 88.6786 420.478 89.2175 419.952C90.5279 418.672 92.0938 418 93.942 418.034C94.2323 418.04 94.5215 418.06 94.885 418.077C94.8305 417.828 94.8048 417.641 94.7473 417.464C93.322 413.055 91.5035 408.815 89.157 404.821C87.7377 402.404 86.1618 400.079 84.7029 397.685C83.5381 395.774 82.0147 394.185 80.4092 392.658C80.2972 392.552 80.1506 392.481 79.9694 392.36C77.6279 394.705 75.2012 396.902 72.312 398.884C72.8607 399.104 73.2193 399.326 73.6046 399.391C75.0923 399.641 76.4572 400.172 77.726 400.987C79.1423 401.898 80.5894 402.761 81.7344 404.029C81.7899 404.091 81.8949 404.109 81.983 404.15H81.982ZM71.7148 407.809C72.0862 408.27 72.3893 408.655 72.7013 409.033C74.8199 411.597 76.4958 414.419 77.6675 417.536C78.0617 418.585 78.4698 419.63 78.8353 420.689C79.5465 422.743 80.3408 424.778 80.9064 426.873C82.1356 431.425 83.0666 436.039 83.2479 440.858C83.9422 441.055 84.6484 441.255 85.416 441.473C85.4705 441.013 85.526 440.69 85.5438 440.364C85.6478 438.487 85.7478 436.61 85.839 434.733C85.9707 431.999 86.1678 429.267 85.8687 426.529C85.6607 424.627 85.5002 422.721 85.2972 420.82C84.8772 416.884 84.3463 412.968 83.3519 409.124C83.0636 408.008 82.5743 407.031 81.887 406.133C80.2061 403.933 77.9627 402.438 75.5687 401.145C75.0665 400.873 74.5188 400.651 73.8512 400.694C73.9721 401.011 74.08 401.25 74.1553 401.499C74.5792 402.912 74.5822 404.253 73.5561 405.46C72.9212 406.207 72.3427 407.004 71.7148 407.809ZM170.74 404.745C171.747 403.938 172.737 403.132 173.744 402.344C174.314 401.898 174.887 401.447 175.5 401.065C176.42 400.49 176.657 400.539 177.497 401.274C178.193 401.884 178.882 402.517 179.824 402.716C180.629 402.886 181.442 403.026 182.256 403.14C184.08 403.394 185.938 403.372 187.726 403.931C188.869 404.288 188.91 404.253 189.636 403.227C192.41 399.305 195.495 395.667 199.227 392.61C199.454 392.424 199.665 392.202 199.829 391.959C200.209 391.398 200.108 390.982 199.52 390.651C198.921 390.313 198.285 390.244 197.608 390.408C196.26 390.735 195.086 391.382 194.082 392.322C193.192 393.156 192.335 394.026 191.484 394.902C191.217 395.177 191 395.507 190.794 395.834C190.512 396.28 190.289 396.355 189.833 396.05C189.368 395.739 188.922 395.397 188.469 395.065C187.816 394.586 187.094 394.308 186.279 394.265C186.052 394.253 185.823 394.2 185.604 394.133C183.443 393.473 181.581 393.98 179.953 395.521C179.283 396.155 178.558 396.731 177.843 397.316C177.63 397.489 177.4 397.759 176.976 397.403C177.566 396.669 178.235 396.004 178.916 395.364C179.61 394.713 180.319 394.039 181.131 393.561C181.91 393.101 182.83 392.88 183.719 392.543C181.189 391.202 178.624 391.165 176.015 392.069C174.446 392.613 173.876 393.412 173.815 395.092C173.798 395.552 173.854 396.014 173.87 396.475C173.881 396.804 173.914 397.135 173.886 397.462C173.811 398.337 173.446 398.678 172.568 398.756C172.177 398.791 171.752 398.762 171.404 398.908C170.155 399.433 169.112 400.287 168.007 401.052C168.945 402.32 169.82 403.503 170.741 404.747L170.74 404.745ZM62.4746 400.749C61.8149 401.041 61.1484 401.307 60.5085 401.624C58.9505 402.397 57.7312 403.623 56.4307 404.737C56.3 404.849 56.2752 405.118 56.2554 405.319C56.1979 405.897 55.8988 406.072 55.4085 405.762C55.1887 405.623 54.9965 405.432 54.8093 405.247C53.6811 404.136 52.5579 403.02 51.4338 401.905C51.2099 401.683 50.988 401.458 50.7662 401.234C51.0306 402.635 51.4338 403.952 51.828 405.272C52.7966 408.512 54.0971 411.595 55.989 414.421C57.4192 416.558 58.7821 418.741 60.1737 420.903C61.1721 422.455 62.1656 424.01 63.1709 425.558C63.2808 425.728 63.4571 425.853 63.572 425.968C63.9455 423.25 64.2911 420.573 64.6863 417.902C65.135 414.868 65.5867 411.833 66.7653 408.965C66.8476 408.765 66.7782 408.457 66.6831 408.242C66.5385 407.914 66.3048 407.625 66.1166 407.315C64.8399 405.206 63.4671 403.151 62.4736 400.748L62.4746 400.749ZM60.8443 399.997C57.6183 398.272 54.8885 396.235 52.5451 393.69C52.1013 393.207 51.6556 392.709 51.1356 392.318C49.5271 391.107 48.3643 389.511 47.1906 387.918C46.5943 387.109 45.9842 386.311 45.3562 385.476C44.7451 386.235 44.962 387.012 45.1383 387.724C45.485 389.13 45.8901 390.527 46.3467 391.902C47.0737 394.092 47.9552 396.145 49.6004 397.917C51.303 399.751 52.9413 401.652 54.7043 403.436C54.9054 403.64 55.1292 403.822 55.3986 404.065C56.9279 402.364 58.693 401.065 60.8453 399.997H60.8443ZM157.545 400.465C162.88 403.378 165.943 408.073 168.506 413.15C169.609 412.353 170.745 411.532 171.897 410.699C171.872 410.509 171.867 410.309 171.814 410.123C171.725 409.807 171.619 409.493 171.496 409.188C170.549 406.845 169.233 404.719 167.618 402.787C166.026 400.883 164.109 399.42 161.714 398.626C161.294 398.486 160.96 398.468 160.601 398.675C159.612 399.248 158.627 399.831 157.545 400.465ZM51.6923 467.99C51.0534 467.003 50.4354 466.827 49.6202 467.545C48.6634 468.388 47.7145 469.296 46.9865 470.332C45.2631 472.786 44.1151 475.51 43.712 478.51C43.6031 479.319 43.5397 480.134 43.7625 480.915C44.2934 481.051 44.7659 481.214 45.2512 481.288C46.9093 481.543 48.5703 481.778 50.2343 481.996C50.8603 482.077 51.4159 481.933 51.7339 481.299C52.2915 480.186 52.8571 479.077 53.4583 477.888C52.9205 477.439 52.4322 477.031 51.8567 476.552C51.6616 476.978 51.5576 477.29 51.3882 477.56C50.9722 478.225 50.5602 478.897 50.0778 479.512C49.7965 479.872 49.3746 480.168 48.8645 479.964C48.3544 479.76 48.3474 479.249 48.2751 478.796C48.2593 478.699 48.2642 478.599 48.2662 478.5C48.3098 476.822 48.3306 475.143 48.4049 473.467C48.5109 471.084 49.3003 469.082 51.6923 467.99ZM176.914 390.523C176.589 389.766 176.299 389.042 175.971 388.335C174.746 385.693 172.089 384.395 169.092 384.822C168.678 384.881 168.257 385.036 167.888 385.237C167.201 385.611 166.812 386.209 166.885 387.021C166.952 387.776 167.468 388.251 168.362 388.505C170.052 388.986 171.506 389.858 172.657 391.199C172.951 391.541 173.195 391.927 173.523 392.374C174.352 391.213 175.661 391.052 176.914 390.522V390.523ZM68.3273 433.015C72.1139 430.411 75.3112 427.29 78.4134 424.076C78.0766 422.691 77.9122 422.288 77.4932 421.79C74.0998 424.97 70.4162 427.755 66.28 429.977C66.9823 431.02 67.6429 432 68.3273 433.016V433.015ZM80.1962 430.888C77.4169 433.844 74.4396 436.197 71.0799 438.138C71.7227 439.027 72.1317 440.056 72.8845 440.959C73.353 439.597 73.352 439.582 74.6079 439.453C74.9883 439.413 75.2943 439.346 75.5281 439.003C75.6509 438.824 75.8797 438.714 76.0669 438.581C77.723 437.401 79.3801 436.223 81.0589 435.028C80.7816 433.695 80.5161 432.418 80.1972 430.888H80.1962ZM65.553 421.997C65.6471 422.037 65.7412 422.077 65.8353 422.116C68.9018 419.745 71.8098 417.195 74.5337 414.334C74.1008 413.64 73.6729 412.953 73.1876 412.175C72.4576 412.914 71.8405 413.59 71.169 414.208C69.7189 415.54 68.3907 417.029 66.5573 417.888C66.4078 417.958 66.2582 418.163 66.2255 418.328C65.9849 419.548 65.7729 420.774 65.553 421.998V421.997ZM195.81 397.566C194.656 398.587 192.733 401.079 192.426 401.941C192.559 401.957 192.687 401.984 192.814 401.985C194.428 401.996 196.041 402.026 197.655 402.004C198.848 401.987 199.19 401.414 198.694 400.335C198.106 399.057 197.164 398.136 195.81 397.565V397.566ZM196.538 396.697C197.631 397.907 198.642 397.527 199.656 396.906C199.936 396.734 200.239 396.594 200.5 396.398C200.91 396.09 201.292 395.748 201.763 395.356C201.061 394.466 200.238 394.143 199.299 394.058C199.161 394.045 198.975 394.143 198.872 394.249C198.077 395.066 197.295 395.897 196.537 396.697H196.538ZM72.314 404.444C70.7074 405.324 69.1544 406.307 67.2408 406.653C67.5518 407.27 67.8123 407.789 68.1025 408.365C68.9117 408.01 69.6635 407.689 70.4044 407.344C70.5391 407.282 70.653 407.136 70.7352 407.005C71.2542 406.177 71.7623 405.342 72.314 404.444ZM186.275 392.735C186.246 392.819 186.215 392.903 186.185 392.987C187.78 393.22 189.149 393.917 190.373 394.972C191.042 394.214 191.634 393.543 192.347 392.734H186.275V392.735ZM51.3387 476.274C50.6592 476.109 50.1352 475.982 49.5202 475.833C49.4716 476.852 49.429 477.741 49.3775 478.818C50.3224 478.094 50.5423 477.105 51.3377 476.274H51.3387ZM68.4848 400.628C66.9644 400.803 65.655 400.955 64.2773 401.114C64.4209 401.513 64.4377 401.94 64.9399 401.871C66.1344 401.706 67.2814 401.386 68.4838 400.628H68.4848ZM45.3552 482.593C44.7896 482.482 44.3618 482.398 43.8527 482.297C44.0141 483.319 44.2954 484.122 44.9739 484.993C45.1135 484.116 45.2225 483.426 45.3552 482.592V482.593Z" fill="black"/>
<path d="M141.666 435.421L155.257 424.888L160.694 423.869L251.074 424.888L252.093 429.306L232.726 448.333L141.666 435.421Z" fill="white"/>
<path d="M39.7579 486.109C39.1726 486.069 38.6268 485.975 38.3128 485.415C38.1306 485.09 38.2019 484.778 38.4297 484.502C38.7159 484.154 39.7332 483.908 40.17 484.073C40.5721 484.224 41.0881 485.099 40.9782 485.527C40.9366 485.688 40.7672 485.874 40.6117 485.935C40.3423 486.04 40.0382 486.057 39.7599 486.109H39.7579Z" fill="black"/>
<path d="M35.3434 485.789C34.7164 485.789 34.1687 485.436 34.0241 484.941C33.8864 484.473 34.1419 483.971 34.6401 483.731C35.175 483.473 35.7128 483.595 36.1397 484.095C36.3953 484.395 36.6865 484.709 36.4785 485.151C36.2566 485.622 35.8426 485.79 35.3444 485.789H35.3434Z" fill="black"/>
<path d="M26.5223 482.651C27.2325 482.626 27.8129 483.102 27.8317 483.723C27.8496 484.309 27.3989 484.749 26.7571 484.772C26.0271 484.797 25.3556 484.258 25.3645 483.653C25.3724 483.119 25.8884 482.672 26.5213 482.65L26.5223 482.651Z" fill="black"/>
<path d="M31.0764 484.987C30.3384 485.008 29.7669 484.564 29.7689 483.967C29.7709 483.42 30.2602 482.944 30.8515 482.918C31.4755 482.889 32.0866 483.438 32.1035 484.043C32.1183 484.569 31.6825 484.97 31.0764 484.988V484.987Z" fill="black"/>
<path d="M39.5906 522.298C37.7454 521.959 35.8902 521.664 34.0568 521.267C32.7058 520.974 31.3826 520.553 30.0504 520.179C28.1714 519.65 26.6233 518.664 25.615 516.937C25.516 516.767 25.3832 516.616 25.2713 516.454C23.7935 514.317 23.6975 513.596 24.6315 511.167C24.8553 510.584 25.1376 510.021 25.4318 509.469C25.6715 509.018 26.03 508.762 26.5718 509.026C26.658 509.068 26.765 509.118 26.8511 509.103C28.6271 508.784 30.3267 509.35 32.0402 509.606C36.3983 510.256 40.7693 510.501 45.166 510.281C46.4953 510.215 47.7908 510.3 49.0725 510.676C49.5023 510.802 49.6955 511.035 49.6648 511.446C49.643 511.738 49.5776 512.035 49.4825 512.313C48.8694 514.089 48.2444 515.862 47.6184 517.632C47.4798 518.025 47.2312 518.372 47.4907 518.844C47.5669 518.983 47.352 519.423 47.1569 519.549C44.86 521.034 42.468 522.274 39.5906 522.297V522.298ZM48.0602 511.373C47.565 511.373 47.1391 511.351 46.7151 511.377C45.7603 511.435 44.8075 511.533 43.8527 511.589C38.1 511.924 32.4018 511.721 26.8947 509.852C26.2628 511.042 25.6319 512.228 24.9554 513.503C25.7903 514.773 26.6511 516.06 27.486 517.363C27.8406 517.916 28.3042 518.325 28.9202 518.517C30.2703 518.938 31.6223 519.359 32.9921 519.708C33.4517 519.824 33.9885 519.817 34.453 519.708C36.7945 519.156 39.139 518.605 41.4508 517.942C42.569 517.621 43.6506 517.557 44.7669 517.765C45.3087 517.866 45.8396 518.023 46.2981 518.136C46.8766 515.914 47.4471 513.723 48.0602 511.372V511.373Z" fill="black"/>
<path d="M78.1905 381.232C77.5764 380.6 77.8666 379.563 77.1931 378.884C76.7742 379.069 76.3255 379.256 75.8867 379.462C75.1458 379.811 74.3822 380.122 73.6809 380.538C72.5518 381.208 71.3275 381.309 70.0706 381.277C69.0494 381.252 68.0292 381.187 67.009 381.144C64.8082 381.051 62.7441 380.446 60.7889 379.457C59.7687 378.941 58.7683 378.387 57.7065 377.823C57.2261 378.724 57.6728 379.863 57.0894 380.937C56.8646 380.65 56.6407 380.495 56.6259 380.324C56.5149 378.979 56.6566 377.658 57.03 376.192C57.4836 376.43 57.7976 376.574 58.0898 376.753C58.8772 377.234 59.6389 377.758 60.4402 378.214C61.8566 379.02 63.3413 379.594 65.0132 379.641C66.4603 379.682 67.9025 379.881 69.3495 379.936C71.9218 380.033 74.2851 379.258 76.5473 378.103C77.5982 377.566 77.7557 377.623 78.2193 378.735C78.4203 379.217 78.5907 379.728 78.6709 380.241C78.7185 380.548 78.5659 380.887 78.5035 381.212C78.3995 381.219 78.2955 381.225 78.1915 381.232H78.1905Z" fill="black"/>
<path d="M56.7309 352.018C57.1914 352.045 57.658 352.126 58.1126 352.088C59.4804 351.971 60.6136 352.601 61.7387 353.21C62.4747 353.609 62.7035 354.44 63.0333 355.145C63.2046 355.512 62.8233 355.822 62.3924 355.688C61.4852 355.407 60.5571 355.16 59.6964 354.771C59.0753 354.49 58.4662 354.33 57.7996 354.325C56.3545 354.316 54.9084 354.271 53.4653 354.314C52.7838 354.335 52.1083 354.539 51.4269 354.633C51.0812 354.681 50.6731 354.799 50.5176 354.305C50.4106 353.968 50.683 353.453 51.0911 353.258C51.7438 352.947 52.4401 352.717 53.0641 352.357C54.2497 351.675 55.4967 351.994 56.7309 352.017V352.018Z" fill="black"/>
<path d="M78.7807 352.991C81.0747 353.29 83.2765 353.837 84.8821 355.713C85.0901 355.955 85.2634 356.254 85.3565 356.557C85.408 356.725 85.3119 357.004 85.1822 357.138C85.1029 357.219 84.8177 357.164 84.6572 357.094C83.639 356.654 82.6456 356.155 81.6145 355.749C80.5656 355.336 79.4424 355.18 78.3271 355.24C77.6912 355.275 77.0781 355.608 76.4402 355.737C75.4151 355.946 74.381 356.118 73.346 356.266C72.9963 356.317 72.8012 355.978 73.0142 355.667C73.5936 354.821 74.2622 353.993 75.2309 353.636C76.3511 353.221 77.4882 352.671 78.7797 352.992L78.7807 352.991Z" fill="black"/>
<path d="M58.5057 360.933C57.643 360.784 56.4564 360.661 55.3214 360.35C54.5785 360.146 53.8416 359.762 53.2265 359.294C52.1607 358.484 52.2231 357.313 53.3533 356.61C53.9555 356.234 54.6597 355.959 55.355 355.809C57.3578 355.375 59.3645 355.493 61.3187 356.093C61.9694 356.293 62.6103 356.617 63.1659 357.012C64.4179 357.901 64.3604 359.199 63.0233 359.937C62.3726 360.296 61.6257 360.52 60.8958 360.689C60.2272 360.842 59.523 360.838 58.5077 360.934L58.5057 360.933ZM60.9661 356.666C59.3427 356.18 57.7421 356.057 56.1316 356.322C55.3917 356.443 54.6369 356.644 53.9664 356.968C52.8749 357.497 52.8154 358.364 53.8465 358.992C56.1068 360.368 58.5652 360.43 61.0265 360.007C60.9572 359.378 60.8641 358.869 60.8551 358.358C60.8462 357.834 60.9205 357.309 60.9671 356.666H60.9661Z" fill="black"/>
<path d="M77.7705 362.437C76.4591 362.301 75.1804 362.171 73.9938 361.622C73.4936 361.39 73.0043 361.095 72.5814 360.742C71.7009 360.009 71.7058 358.915 72.6002 358.202C73.0023 357.881 73.4877 357.613 73.979 357.462C76.3343 356.734 78.6629 356.882 80.9153 357.874C81.3828 358.08 81.8285 358.415 82.1821 358.787C82.8893 359.533 82.8308 360.474 82.0286 361.121C81.6036 361.463 81.0886 361.76 80.5666 361.903C79.6544 362.153 78.7055 362.267 77.7715 362.438L77.7705 362.437ZM80.423 358.3C78.1944 357.555 75.9896 357.354 73.762 358.216C73.5204 358.309 73.2856 358.448 73.0816 358.61C72.4338 359.119 72.3684 359.752 72.9994 360.269C73.4728 360.656 74.0384 360.977 74.6139 361.184C76.16 361.739 77.7646 361.82 79.384 361.558C79.6326 361.518 79.8723 361.425 80.1239 361.353C80.2219 360.351 80.314 359.409 80.423 358.3Z" fill="black"/>
<path d="M58.2325 394.793C58.8099 394.331 59.111 394.651 59.424 394.775C61.0118 395.404 62.5678 396.132 64.1912 396.647C64.9697 396.893 65.8998 396.894 66.714 396.745C68.0996 396.491 69.4526 396.047 70.8096 395.649C71.2127 395.531 71.5722 395.267 71.9724 395.133C72.1546 395.073 72.4587 395.091 72.5845 395.207C72.8103 395.414 72.6202 395.626 72.4141 395.763C72.119 395.959 71.8357 396.215 71.5069 396.312C70.0241 396.752 68.5434 397.212 67.0329 397.535C65.5898 397.843 64.1447 397.642 62.7877 397.048C61.5506 396.506 60.3392 395.906 59.1219 395.32C58.8466 395.188 58.593 395.009 58.2315 394.793H58.2325Z" fill="black"/>
<path d="M63.0817 370.476C63.9464 369.803 64.9626 369.838 65.5946 370.552C65.8749 370.868 66.1215 371.231 66.3087 371.609C66.5583 372.116 66.4305 372.838 66.1175 373.077C65.7332 373.372 64.8992 373.288 64.4783 372.867C63.8196 372.208 63.3244 371.442 63.0817 370.475V370.476Z" fill="black"/>
<path d="M53.6407 377.424C53.608 376 54.3152 374.968 55.4423 374.217C55.8049 373.977 56.2961 373.906 56.7399 373.818C57.0023 373.766 57.3361 373.863 57.3005 374.196C57.2787 374.399 57.035 374.726 56.8676 374.742C55.6236 374.861 55.1729 375.767 54.8342 376.751C54.7114 377.106 54.7688 377.53 54.7728 377.923C54.7757 378.251 54.8659 378.613 54.433 378.737C54.1111 378.829 53.7179 378.464 53.6456 378.016C53.6149 377.824 53.6407 377.622 53.6407 377.424Z" fill="black"/>
<path d="M60.8512 369.479C61.2484 369.691 61.5317 369.794 61.7545 369.974C62.0021 370.173 62.2636 370.411 62.3854 370.691C62.4578 370.857 62.332 371.197 62.1824 371.341C62.0824 371.438 61.7486 371.391 61.5802 371.298C61.2197 371.097 60.9077 370.811 60.559 370.585C59.9281 370.175 59.7082 369.228 60.2024 368.591C60.5788 368.106 61.0701 367.705 61.5435 367.304C61.6475 367.216 61.8892 367.289 62.0675 367.288C62.0626 367.467 62.119 367.684 62.0388 367.817C61.8714 368.093 61.6159 368.315 61.4227 368.578C61.2345 368.835 61.08 369.114 60.8502 369.479H60.8512Z" fill="black"/>
<path d="M53.7573 360.458C53.9108 360.479 63.0222 360.95 63.0619 360.946C63.2273 361.23 63.0945 361.368 62.8192 361.425C61.7019 361.653 60.5896 362.027 59.4654 362.066C57.7351 362.124 56.0077 361.896 54.3863 361.183C54.0881 361.051 53.7712 360.962 53.7573 360.459V360.458Z" fill="black"/>
<path d="M72.8775 372.851C73.0231 372.49 73.141 372.259 73.2093 372.015C73.4153 371.279 73.3262 370.614 72.8092 369.995C72.311 369.398 71.891 368.736 71.4384 368.107C72.1287 367.587 72.2268 367.575 72.5516 368.008C72.9667 368.56 73.349 369.135 73.763 369.687C74.1235 370.167 74.282 370.659 74.0354 371.251C73.9225 371.52 73.8799 371.823 73.8313 372.114C73.7561 372.573 73.4827 372.788 72.8765 372.851H72.8775Z" fill="black"/>
<path d="M72.7528 361.874C73.0391 361.912 73.2025 361.898 73.3332 361.958C74.7249 362.591 76.2224 362.685 77.7042 362.925C78.972 363.131 80.0665 362.891 81.1729 362.368C81.3739 362.273 81.6364 362.307 81.8702 362.283C81.891 362.344 81.9117 362.406 81.9325 362.468C81.7978 362.576 81.679 362.721 81.5255 362.787C80.2547 363.331 79.0097 363.798 77.5517 363.339C76.6008 363.04 75.5509 363.064 74.5495 362.916C73.878 362.815 73.2282 362.644 72.7538 361.874H72.7528Z" fill="black"/>
<path d="M79.3019 378.398C79.4901 376.235 78.2559 375.402 76.3909 375.198C76.4196 374.73 76.685 374.576 77.0386 374.535C78.7056 374.344 80.2785 376.081 79.8932 377.7C79.8377 377.932 79.6703 378.138 79.5545 378.356C79.4703 378.37 79.3861 378.384 79.3019 378.398Z" fill="black"/>
<path d="M65.3491 373.961C65.2134 374.237 65.0955 374.488 64.9677 374.733C64.5002 375.629 64.1644 376.525 64.7894 377.503C64.8578 377.609 64.7805 377.908 64.6716 377.998C64.5626 378.088 64.2764 378.101 64.1635 378.018C63.9634 377.871 63.7831 377.647 63.688 377.417C63.3146 376.52 63.7049 374.774 64.3972 374.104C64.5867 373.92 64.904 373.872 65.3491 373.96V373.961Z" fill="black"/>
<path d="M67.6994 374.807C67.7707 374.988 67.8687 375.111 67.8539 375.217C67.7192 376.182 68.1035 377.019 68.4838 377.859C68.5106 377.919 68.5502 377.974 68.573 378.035C68.6819 378.335 68.9226 378.698 68.5086 378.895C68.1055 379.087 67.9351 378.7 67.7915 378.412C67.3755 377.576 66.694 376.829 66.8911 375.779C66.9723 375.346 67.0714 374.939 67.6994 374.807Z" fill="black"/>
<path d="M71.5652 373.085C70.9798 373.084 70.7075 372.887 70.5688 372.503C70.4371 372.137 70.5638 371.843 70.8689 371.648C71.2542 371.401 71.6454 371.136 72.0733 370.997C72.2902 370.927 72.6448 371.052 72.832 371.213C72.9202 371.288 72.8112 371.682 72.7003 371.882C72.527 372.194 72.2972 372.483 72.0505 372.743C71.8851 372.919 71.6494 373.028 71.5652 373.086V373.085Z" fill="black"/>
<path d="M61.5142 326.286L62.393 325.414L74.6956 291.379L58.4385 269.999L29 283.089L46.1359 331.959L49.6509 329.777L58.4385 326.286H61.5142Z" fill="white"/>
<mask id="path-27-inside-1_1124_7427" fill="white">
<path d="M130.993 77.5305C127.216 70.2425 130.042 61.1913 137.69 58.209C167.327 46.6517 200.184 45.4947 230.787 55.2067C266.135 66.4249 295.579 91.2255 312.641 124.153C329.704 157.08 332.987 195.437 321.769 230.785C312.057 261.387 292.164 287.565 265.632 305.113C258.786 309.642 249.761 306.731 245.985 299.443L227.494 263.759C223.717 256.471 226.702 247.608 233.029 242.379C243.311 233.881 251.032 222.546 255.129 209.636C260.738 191.962 259.096 172.783 250.565 156.32C242.034 139.856 227.312 127.456 209.638 121.847C196.727 117.75 183.014 117.521 170.143 121.021C162.222 123.175 153.26 120.503 149.484 113.214L130.993 77.5305Z"/>
</mask>
<path d="M130.993 77.5305C127.216 70.2425 130.042 61.1913 137.69 58.209C167.327 46.6517 200.184 45.4947 230.787 55.2067C266.135 66.4249 295.579 91.2255 312.641 124.153C329.704 157.08 332.987 195.437 321.769 230.785C312.057 261.387 292.164 287.565 265.632 305.113C258.786 309.642 249.761 306.731 245.985 299.443L227.494 263.759C223.717 256.471 226.702 247.608 233.029 242.379C243.311 233.881 251.032 222.546 255.129 209.636C260.738 191.962 259.096 172.783 250.565 156.32C242.034 139.856 227.312 127.456 209.638 121.847C196.727 117.75 183.014 117.521 170.143 121.021C162.222 123.175 153.26 120.503 149.484 113.214L130.993 77.5305Z" fill="url(#paint0_linear_1124_7427)" stroke="white" stroke-width="11.8901" mask="url(#path-27-inside-1_1124_7427)"/>
<path opacity="0.7" d="M83.2103 275.935C72.5472 263.098 64.295 248.385 58.9013 232.506C51.9437 212.024 49.9406 190.184 53.0561 168.777C56.1717 147.371 64.3171 127.008 76.8245 109.358C86.5207 95.6754 98.6243 83.9257 112.504 74.6604C117.684 71.2025 124.8 73.2514 127.891 79.1541L146.532 114.76C149.524 120.475 147.348 127.891 141.817 132.501C136.986 136.528 132.68 141.178 129.018 146.345C122.357 155.745 118.019 166.59 116.36 177.991C114.7 189.391 115.767 201.023 119.473 211.931C121.51 217.928 124.312 223.612 127.795 228.849C131.782 234.845 131.754 242.573 127.257 247.199L99.2394 276.013C94.5947 280.79 87.1899 280.726 83.2103 275.935Z" fill="#B358FB" stroke="white" stroke-width="5.94505"/>
<g opacity="0.8">
<mask id="path-29-inside-2_1124_7427" fill="white">
<path d="M245.983 299.446C249.76 306.734 246.934 315.785 239.286 318.767C221.072 325.869 201.566 329.073 182.037 328.172C173.838 327.793 168.265 320.122 169.511 312.008L175.614 272.284C176.86 264.171 184.496 258.772 192.69 258.278C197.471 257.99 202.211 257.212 206.833 255.955C214.754 253.801 223.716 256.474 227.492 263.762L245.983 299.446Z"/>
</mask>
<path d="M245.983 299.446C249.76 306.734 246.934 315.785 239.286 318.767C221.072 325.869 201.566 329.073 182.037 328.172C173.838 327.793 168.265 320.122 169.511 312.008L175.614 272.284C176.86 264.171 184.496 258.772 192.69 258.278C197.471 257.99 202.211 257.212 206.833 255.955C214.754 253.801 223.716 256.474 227.492 263.762L245.983 299.446Z" fill="url(#paint1_linear_1124_7427)" stroke="white" stroke-width="11.8901" mask="url(#path-29-inside-2_1124_7427)"/>
</g>
<g opacity="0.8">
<mask id="path-30-inside-3_1124_7427" fill="white">
<path d="M173.601 312.568C172.624 320.718 165.196 326.611 157.195 324.774C138.044 320.377 120.03 311.991 104.337 300.165C97.7816 295.225 97.5098 285.748 103.117 279.753L130.572 250.402C136.18 244.408 145.531 244.259 152.574 248.476C156.726 250.962 161.125 253.01 165.7 254.587C173.461 257.263 179.366 264.514 178.389 272.664L173.601 312.568Z"/>
</mask>
<path d="M173.601 312.568C172.624 320.718 165.196 326.611 157.195 324.774C138.044 320.377 120.03 311.991 104.337 300.165C97.7816 295.225 97.5098 285.748 103.117 279.753L130.572 250.402C136.18 244.408 145.531 244.259 152.574 248.476C156.726 250.962 161.125 253.01 165.7 254.587C173.461 257.263 179.366 264.514 178.389 272.664L173.601 312.568Z" fill="url(#paint2_linear_1124_7427)" stroke="white" stroke-width="11.8901" mask="url(#path-30-inside-3_1124_7427)"/>
</g>
<defs>
<linearGradient id="paint0_linear_1124_7427" x1="233.392" y1="166.954" x2="-119.772" y2="-426.532" gradientUnits="userSpaceOnUse">
<stop stop-color="#1B59F8"/>
<stop offset="1" stop-color="#1B59F8" stop-opacity="0"/>
</linearGradient>
<linearGradient id="paint1_linear_1124_7427" x1="143.584" y1="210.022" x2="496.748" y2="803.508" gradientUnits="userSpaceOnUse">
<stop stop-color="#24FF00"/>
<stop offset="1" stop-color="#58FD41" stop-opacity="0"/>
</linearGradient>
<linearGradient id="paint2_linear_1124_7427" x1="143.584" y1="210.022" x2="496.748" y2="803.508" gradientUnits="userSpaceOnUse">
<stop stop-color="#FF0000"/>
<stop offset="1" stop-color="#1B59F8" stop-opacity="0.46"/>
</linearGradient>
</defs>
</svg>
