<svg id="Layer_1" data-name="Layer 1" xmlns="http://www.w3.org/2000/svg" viewBox="0 0 113.78 103.33"><defs><style>.cls-1,.cls-2{fill-rule:evenodd;}.cls-2{fill:#fff;}</style></defs><path class="cls-1" d="M116.43,38.31c-.17-2.41-.52-5-3.19-6.24-.33-.16-.47-.69-.7-1a19.82,19.82,0,0,0-5.7-5.8c-3.08-2.14-6.15-4.3-9.24-6.42a130.12,130.12,0,0,0-36-17.35A28,28,0,0,0,46.44.72C42.65,1.66,38.8,2.42,35,3.38c-5.86,1.49-11.71,3-17.53,4.68A60.08,60.08,0,0,0,9.83,10.9,8.27,8.27,0,0,0,4.9,17a71.26,71.26,0,0,0-1.48,9.59c-.31,4.76-.29,9.53-.31,14.3,0,9.28,1,18.35,4.56,27.06a27.55,27.55,0,0,0,5.24,8.7,10.56,10.56,0,0,0,4.91,3.08,5.55,5.55,0,0,1,2.38,1.3,5.08,5.08,0,0,0,3.89,1.6c4.94,0,9.89,0,14.84,0,2.17,0,4.34,0,6.81,0-1.37,2.17-2.43,4-3.64,5.74-1,1.45-.4,2.78.07,4.12.42,1.19,1.52.87,2.42.91,1.35.06,2.71.1,4.06.13,1,0,2,0,3.44,0-1,1.18-1.68,1.94-2.36,2.67A29.52,29.52,0,0,0,47.6,98.4c-.42.58-.91,1.45-.75,2a8.87,8.87,0,0,0,1.62,2.77c.15.21.81.16,1.18,0a5.51,5.51,0,0,0,1.37-.69c6.89-4.23,13.62-8.76,20.86-12.43a8.52,8.52,0,0,0,3.73-3.43c-.38-2.33-1.7-3-3.79-3.09-2.53-.1-5-.61-8.22-1,1-.6,1.38-1,1.85-1.13,3-.46,6.06-1,9.11-1.23,5.35-.47,10.71-.76,16.06-1.19,4.32-.35,8.62-1,12.95-1.14,3.52-.15,6.31-1.6,9.08-3.58,3-2.19,4-5.1,3.88-8.65a74.9,74.9,0,0,1,.09-7.93A135.2,135.2,0,0,0,116.43,38.31ZM112.16,67c-.19,4.56-1,5.44-5.55,6-4.06.53-8.15.77-12.23,1.1q-8.66.7-17.33,1.32c-1.61.11-3.23,0-4.85.05s-3.39.26-5.09.38a3.79,3.79,0,0,0-2.8,1.54C62.8,79.3,61.16,81,59.57,82.79a3.07,3.07,0,0,0,3.11,2.57,47.48,47.48,0,0,1,6.9,1.14,157.71,157.71,0,0,1-14.51,8.7c.7-1.76,2.21-2.85,3.37-4.21.56-.67,1-1.43,1.47-2.12-1.25-1.19-2.42-1-3.62-.88-3.4.35-6.79.64-10.19.93a2.7,2.7,0,0,1-.76-.19c1.43-3.73,4.9-6,6.73-9.92a11.48,11.48,0,0,0-2.93-.54c-8,.87-16,.09-24-.41-.94-.06-1.88-.2-2.81-.17-4.75.17-7.95-2.35-10.12-6.2A49.35,49.35,0,0,1,6.43,54.9a130.64,130.64,0,0,1-1-25.54c.17-4.23,1.19-8.43,1.9-12.63a4.59,4.59,0,0,1,2.9-3.65,55,55,0,0,1,7-2.51c9.18-2.31,18.41-4.4,27.58-6.73A30.13,30.13,0,0,1,63.85,5c5.06,2,10.23,3.84,15.09,6.28C84.1,13.83,89,17,93.91,20c3.82,2.41,7.48,5.08,11.2,7.64a16.8,16.8,0,0,1,7.7,14.78Q112.68,54.75,112.16,67Z" transform="translate(-3.11)"/><path class="cls-2" d="M114.8,41.43q-.15,12.56-.68,25.1c-.19,4.66-1.06,5.56-5.76,6.18-4.2.55-8.45.79-12.68,1.13-6,.47-12,.93-18,1.34-1.67.12-3.36,0-5,0s-3.52.27-5.29.39a3.91,3.91,0,0,0-2.89,1.58c-1.57,1.88-3.27,3.64-4.92,5.45a3.16,3.16,0,0,0,3.22,2.62A48.29,48.29,0,0,1,70,86.44a161,161,0,0,1-15,8.88c.73-1.79,2.29-2.9,3.49-4.3a23.62,23.62,0,0,0,1.53-2.16c-1.29-1.22-2.51-1-3.76-.9-3.51.35-7,.65-10.56,1a2.68,2.68,0,0,1-.79-.2c1.48-3.81,5.08-6.17,7-10.13a12.37,12.37,0,0,0-3-.56c-8.32.9-16.61.09-24.9-.42-1,0-1.95-.2-2.91-.17-4.93.17-8.25-2.4-10.5-6.34a49.74,49.74,0,0,1-6-17c-1.38-8.66-1.36-17.39-1-26.1.18-4.32,1.24-8.62,2-12.91a4.7,4.7,0,0,1,3-3.73,56.77,56.77,0,0,1,7.21-2.57C25.18,6.47,34.75,4.34,44.26,2A31.62,31.62,0,0,1,64,3.09C69.27,5.15,74.64,7,79.67,9.51c5.35,2.66,10.44,5.86,15.53,9,4,2.45,7.75,5.18,11.61,7.8A17.13,17.13,0,0,1,114.8,41.43Z" transform="translate(-3.11)"/></svg>