<svg id="Layer_1" data-name="Layer 1" xmlns="http://www.w3.org/2000/svg" viewBox="0 0 120 87.94"><defs><style>.cls-1,.cls-2{fill-rule:evenodd;}.cls-2{fill:#fff;}</style></defs><path class="cls-1" d="M119.91,56.88c-.54-8.33-1.72-16.61-2.64-24.9-.43-3.94-1.54-7.53-4.47-10.36-1.74-1.67-3.13-3.72-4.75-5.52a14.54,14.54,0,0,0-6.38-4.35,95.11,95.11,0,0,0-25.92-4,126.74,126.74,0,0,0-21.93,1c-8.49,1.22-17,1.85-25.26,4.71C21.26,16,13.77,18,7.49,23c-2.62,2.1-5.18,4.33-5.77,7.85A143.71,143.71,0,0,0,.07,45.36C-.31,51.65.93,57.83,2,64c.94,5.59,3.19,10.37,7.78,13.71a3.51,3.51,0,0,1,1,1C13.34,83,17.38,84.6,21.89,85s8.91.57,13.38.76c3.13.14,6.28.09,9.42.22,5.42.23,10.83.64,16.25.76,6.93.15,13.87.08,20.8.11a6.27,6.27,0,0,0,2-.08c1.28-.45,2.14.08,3.1.87,2.77,2.28,5.54,4.55,8.46,6.61A10.32,10.32,0,0,0,99,95.49c1.33.3,1.93-.4,1.86-1.79-.12-2.17-.23-4.34-.35-6.86a16.18,16.18,0,0,0,2.31-.64,32.16,32.16,0,0,0,5.92-2.81C117.63,77,120.59,67.6,119.91,56.88Zm-6.56,12.85c-.75,6.62-7.25,12.48-13,11.92a8.22,8.22,0,0,0-.86,0c-4,0-4.49.61-4,4.62a33.88,33.88,0,0,1,0,4.21c-3.4-2.36-6.63-4.32-8.87-7.64a2.6,2.6,0,0,0-1.89-.91c-8.58-.13-17.15-.18-25.72-.24-3.06,0-6.11.14-9.16-.06-5.89-.37-11.78-1-17.67-1.42C29.51,80,26.74,80,24,79.7a35.35,35.35,0,0,1-10.7-3.09C8.42,74.31,5.76,70.19,4.77,65c-2-10.39-2.9-20.85-1.19-31.44a13,13,0,0,1,5.3-8.78C14.5,20.6,21,18.66,27.45,16.47c7.93-2.71,16.13-3.87,24.38-4.87a124.84,124.84,0,0,1,21.68-1.15A126.2,126.2,0,0,1,98.37,14a15.18,15.18,0,0,1,9.91,7.89c3.29,6,4.81,12.51,5.71,19.25C115.26,50.72,114.43,60.23,113.35,69.73Z" transform="translate(0 -7.62)"/><path class="cls-2" d="M115.45,69c-.78,6.72-7.52,12.65-13.47,12.09a8.81,8.81,0,0,0-.89,0c-4.15,0-4.66.61-4.11,4.68A33,33,0,0,1,97,90c-3.51-2.39-6.86-4.38-9.19-7.75a2.72,2.72,0,0,0-2-.92c-8.89-.13-17.78-.18-26.67-.24-3.16,0-6.34.14-9.49-.06-6.11-.38-12.21-1-18.32-1.44-2.85-.22-5.72-.19-8.55-.52a37.06,37.06,0,0,1-11.09-3.14c-5.08-2.32-7.84-6.5-8.86-11.74-2-10.53-3-21.14-1.23-31.88a13.08,13.08,0,0,1,5.49-8.9C13,19.16,19.73,17.19,26.39,15,34.61,12.22,43.11,11,51.66,10A133.2,133.2,0,0,1,74.14,8.86a133,133,0,0,1,25.78,3.63,15.69,15.69,0,0,1,10.28,8c3.41,6.06,5,12.68,5.91,19.52C117.43,49.69,116.57,59.34,115.45,69Z" transform="translate(0 -7.62)"/></svg>