<svg id="Layer_1" data-name="Layer 1" xmlns="http://www.w3.org/2000/svg" viewBox="0 0 119.2 100.67"><defs><style>.cls-1,.cls-2{fill-rule:evenodd;}.cls-2{fill:#fff;}</style></defs><path class="cls-1" d="M119.51,31.22A17.46,17.46,0,0,0,116,19.66c-.49-.66-.93-1.36-1.37-2.06-4.73-7.45-11.24-12.65-20-14.16a169.86,169.86,0,0,0-20.91-2c-6.33-.29-12.68,0-19,.1-8.23.14-16.47.27-24.7.57-5.42.2-10.49,2-15.5,4a13.42,13.42,0,0,0-2.13,1.24C6.86,10.71,4.1,16,2.89,22.06A90.48,90.48,0,0,0,1.27,34.54c-.38,6.65-.46,13.33-.51,20a49.45,49.45,0,0,0,1.7,14.94A80,80,0,0,0,5.7,77.21C10.27,81.63,15,85.59,22,85.49c3.43,0,6.86.36,10.72.59-2.12,3.07-4,5.75-5.84,8.49-1,1.58-1.94,3.25-2.93,4.87-.56.92-.17,1.52.55,2.11a2.08,2.08,0,0,0,2.32.19c3-1.18,6.07-2.17,8.92-3.61,6.61-3.34,13.46-6.27,19.46-10.74a5.53,5.53,0,0,1,3-1c3.12-.1,6.25,0,9.38,0,6.1,0,12.21.38,18.29-.4,7.11-.92,14.25-1.68,21-4.44a15.3,15.3,0,0,0,6.89-5.37,19.65,19.65,0,0,0,2.72-6.3,67.65,67.65,0,0,0,2.49-9.54A139.63,139.63,0,0,0,120,45.05C120,40.45,119.39,35.82,119.51,31.22Zm-7,36.25a12.6,12.6,0,0,1-6.89,8.59,36.67,36.67,0,0,1-12,3.62c-3.5.5-7.08.55-10.54,1-5.19.69-10.35.09-15.5.6-3.19.32-6.42.13-9.63.24a10.71,10.71,0,0,0-5.29,1.78c-6.81,4.19-13.72,8.22-20.6,12.3-1.17.69-2.37,1.34-3.55,2L28,97.05q1.77-2.52,3.52-5.06c1.18-1.69,2.4-3.35,3.53-5.08s2.83-3,3.58-5.42c-1.08,0-1.83,0-2.57,0a35.1,35.1,0,0,1-4.89.31c-4.76-.38-9.51-.91-14.26-1.45a16.85,16.85,0,0,1-3.86-.85C9.38,78.15,6.28,76,5.3,71.9q-1.23-5.16-2-10.41a41.14,41.14,0,0,1-.38-6.66C3,46.68,2.9,38.52,4,30.4c.6-4.51,1.11-9,2.87-13.22a15.81,15.81,0,0,1,8.2-8.53A49,49,0,0,1,36.41,4.22c8.16.07,16.32-.32,24.48-.28,6.83,0,13.67.34,20.5.7a93.09,93.09,0,0,1,11.3,1.19A28.48,28.48,0,0,1,108.43,14c4.4,4.5,6.29,10,6.69,16.08A130.69,130.69,0,0,1,112.5,67.47Z" transform="translate(-0.76 -1.33)"/><path class="cls-2" d="M114.62,67a12.82,12.82,0,0,1-7.06,8.74,37.91,37.91,0,0,1-12.29,3.68c-3.59.51-7.25.56-10.8,1-5.31.7-10.6.09-15.88.61-3.26.33-6.58.13-9.86.24a10.89,10.89,0,0,0-5.42,1.82c-7,4.26-14.05,8.36-21.1,12.51-1.2.7-2.43,1.35-3.64,2L28.1,97c1.2-1.71,2.4-3.43,3.61-5.14s2.46-3.41,3.61-5.17,2.9-3,3.67-5.51c-1.11,0-1.87,0-2.64,0a36.7,36.7,0,0,1-5,.32c-4.88-.38-9.75-.92-14.62-1.47a17.76,17.76,0,0,1-4-.87c-3.8-1.39-7-3.56-8-7.74Q3.56,66.21,2.74,60.88a40.42,40.42,0,0,1-.4-6.78c.09-8.3,0-16.59,1.12-24.86.61-4.58,1.14-9.14,3-13.44A16.1,16.1,0,0,1,14.8,7.13,50.45,50.45,0,0,1,36.67,2.62c8.36.07,16.72-.33,25.08-.28,7,0,14,.34,21,.71A93.36,93.36,0,0,1,94.32,4.26a29.19,29.19,0,0,1,16.13,8.33c4.51,4.58,6.44,10.2,6.85,16.36A131.86,131.86,0,0,1,114.62,67Z" transform="translate(-0.76 -1.33)"/></svg>