<svg id="Layer_1" data-name="Layer 1" xmlns="http://www.w3.org/2000/svg" xmlns:xlink="http://www.w3.org/1999/xlink" viewBox="0 0 120 120"><defs><style>.cls-1{fill:url(#linear-gradient);}.cls-2{fill:#fff;fill-rule:evenodd;}</style><linearGradient id="linear-gradient" x1="60" y1="120" x2="60" gradientUnits="userSpaceOnUse"><stop offset="0" stop-color="#1d93d2"/><stop offset="1" stop-color="#38b0e3"/></linearGradient></defs><rect class="cls-1" width="120" height="120" rx="30"/><path class="cls-2" d="M60,25.58A35.33,35.33,0,0,0,49,94.35c1.74.35,2.38-.76,2.38-1.69s-.06-3.63-.06-6.55c-9.74,2.11-11.77-4.2-11.77-4.2-1.57-4.09-3.89-5.15-3.89-5.15-3.19-2.16.23-2.16.23-2.16,3.54.24,5.4,3.62,5.4,3.62,3.13,5.38,8.18,3.86,10.21,2.93a7.53,7.53,0,0,1,2.2-4.74C45.88,75.6,37.7,72.56,37.7,59a13.78,13.78,0,0,1,3.6-9.46,12.83,12.83,0,0,1,.34-9.35s3-.94,9.63,3.62A34.11,34.11,0,0,1,60,42.64a33.7,33.7,0,0,1,8.76,1.17c6.67-4.56,9.62-3.62,9.62-3.62a12.8,12.8,0,0,1,.35,9.35A13.56,13.56,0,0,1,82.36,59c0,13.56-8.18,16.54-16,17.41,1.28,1.11,2.38,3.22,2.38,6.55,0,4.73-.06,8.53-.06,9.7,0,.93.64,2,2.38,1.69A35.33,35.33,0,0,0,60,25.58Z" transform="translate(0 0)"/></svg>