<svg id="Layer_1" data-name="Layer 1" xmlns="http://www.w3.org/2000/svg" xmlns:xlink="http://www.w3.org/1999/xlink" viewBox="0 0 120 120"><defs><style>.cls-1{fill:url(#linear-gradient);}.cls-2{fill:#c8daea;}.cls-3{fill:#a9c6d8;}.cls-4{fill:#fff;}</style><linearGradient id="linear-gradient" x1="60" y1="120" x2="60" gradientUnits="userSpaceOnUse"><stop offset="0" stop-color="#1d93d2"/><stop offset="1" stop-color="#38b0e3"/></linearGradient></defs><rect class="cls-1" width="120" height="120" rx="30"/><path class="cls-2" d="M42,64.05l7.72,21.36s1,2,2,2,16.4-16,16.4-16l17.1-33L42.27,58.53Z" transform="translate(0 0)"/><path class="cls-3" d="M52.23,69.52,50.75,85.27s-.63,4.83,4.2,0,9.44-8.54,9.44-8.54" transform="translate(0 0)"/><path class="cls-4" d="M42.13,64.81,26.25,59.63s-1.9-.77-1.28-2.51c.12-.36.37-.67,1.13-1.2,3.52-2.45,65.13-24.59,65.13-24.59a5.22,5.22,0,0,1,2.76-.2,1.49,1.49,0,0,1,1,1.12,5.09,5.09,0,0,1,.14,1.4c0,.41-.05.79-.09,1.38-.38,6-11.6,51.23-11.6,51.23s-.67,2.65-3.08,2.74a4.35,4.35,0,0,1-3.21-1.25c-4.73-4.06-21.05-15-24.66-17.44a.73.73,0,0,1-.3-.49c-.05-.25.23-.57.23-.57S80.87,44,81.62,41.33c.06-.2-.16-.31-.46-.22-1.89.7-34.61,21.37-38.23,23.65A1.8,1.8,0,0,1,42.13,64.81Z" transform="translate(0 0)"/></svg>