<?xml version="1.0" encoding="utf-8"?>
<!-- Generator: Adobe Illustrator 26.0.1, SVG Export Plug-In . SVG Version: 6.00 Build 0)  -->
<svg version="1.1" id="Layer_1" xmlns="http://www.w3.org/2000/svg" xmlns:xlink="http://www.w3.org/1999/xlink" x="0px" y="0px"
	 viewBox="0 0 1267.5 608.9" style="enable-background:new 0 0 1267.5 608.9;" xml:space="preserve">
<style type="text/css">
	.st0{fill:none;}
	.st1{fill:none;stroke:#000000;stroke-width:0.72;}
	.st2{fill:#FFFFFF;}
	.st3{fill:#FFFFFF;stroke:#000000;stroke-width:5;stroke-miterlimit:10;}
	.st4{stroke:#000000;stroke-width:5;stroke-miterlimit:10;}
	.st5{fill:#CCCCCC;}
	.st6{opacity:0.1;}
	.st7{fill:url(#SVGID_1_);}
	.st8{fill:url(#SVGID_00000121991416866299730270000011869304745195024277_);}
	.st9{fill:url(#SVGID_00000135672657218774406440000001197855920716136370_);}
	.st10{fill:url(#SVGID_00000118394678221329068760000016311954453629321091_);}
	.st11{fill:url(#SVGID_00000057835917418413413650000011056087512091719585_);}
	.st12{fill:url(#SVGID_00000153686885183188432140000009789067484763078032_);}
	.st13{fill:url(#SVGID_00000136393785506942274590000016361728949348123308_);}
	.st14{fill:url(#SVGID_00000152261706445165766580000007325892273705952184_);}
	.st15{fill:url(#SVGID_00000181077859826890308080000008438664468621700265_);}
	.st16{fill:url(#SVGID_00000083771232524622760680000003564039563212725924_);}
	.st17{fill:url(#SVGID_00000054965798519929371950000008261918028710240180_);}
	.st18{fill:url(#SVGID_00000142858554755592434730000010675554489593835655_);}
</style>
<pattern  y="608.9" width="72" height="72" patternUnits="userSpaceOnUse" id="_10_lpi_10_" viewBox="72.2 -72 72 72" style="overflow:visible;">
	<g>
		<rect x="72.2" y="-72" class="st0" width="72" height="72"/>
		<rect x="72.2" y="-72" class="st0" width="72" height="72"/>
		<line class="st1" x1="144" y1="-68.4" x2="216.5" y2="-68.4"/>
		<line class="st1" x1="144" y1="-54" x2="216.5" y2="-54"/>
		<line class="st1" x1="144" y1="-39.6" x2="216.5" y2="-39.6"/>
		<line class="st1" x1="144" y1="-25.2" x2="216.5" y2="-25.2"/>
		<line class="st1" x1="144" y1="-10.8" x2="216.5" y2="-10.8"/>
		<line class="st1" x1="144" y1="-61.2" x2="216.5" y2="-61.2"/>
		<line class="st1" x1="144" y1="-46.8" x2="216.5" y2="-46.8"/>
		<line class="st1" x1="144" y1="-32.4" x2="216.5" y2="-32.4"/>
		<line class="st1" x1="144" y1="-18" x2="216.5" y2="-18"/>
		<line class="st1" x1="144" y1="-3.6" x2="216.5" y2="-3.6"/>
		<line class="st1" x1="72" y1="-68.4" x2="144.5" y2="-68.4"/>
		<line class="st1" x1="72" y1="-54" x2="144.5" y2="-54"/>
		<line class="st1" x1="72" y1="-39.6" x2="144.5" y2="-39.6"/>
		<line class="st1" x1="72" y1="-25.2" x2="144.5" y2="-25.2"/>
		<line class="st1" x1="72" y1="-10.8" x2="144.5" y2="-10.8"/>
		<line class="st1" x1="72" y1="-61.2" x2="144.5" y2="-61.2"/>
		<line class="st1" x1="72" y1="-46.8" x2="144.5" y2="-46.8"/>
		<line class="st1" x1="72" y1="-32.4" x2="144.5" y2="-32.4"/>
		<line class="st1" x1="72" y1="-18" x2="144.5" y2="-18"/>
		<line class="st1" x1="72" y1="-3.6" x2="144.5" y2="-3.6"/>
		<line class="st1" x1="0" y1="-68.4" x2="72.5" y2="-68.4"/>
		<line class="st1" x1="0" y1="-54" x2="72.5" y2="-54"/>
		<line class="st1" x1="0" y1="-39.6" x2="72.5" y2="-39.6"/>
		<line class="st1" x1="0" y1="-25.2" x2="72.5" y2="-25.2"/>
		<line class="st1" x1="0" y1="-10.8" x2="72.5" y2="-10.8"/>
		<line class="st1" x1="0" y1="-61.2" x2="72.5" y2="-61.2"/>
		<line class="st1" x1="0" y1="-46.8" x2="72.5" y2="-46.8"/>
		<line class="st1" x1="0" y1="-32.4" x2="72.5" y2="-32.4"/>
		<line class="st1" x1="0" y1="-18" x2="72.5" y2="-18"/>
		<line class="st1" x1="0" y1="-3.6" x2="72.5" y2="-3.6"/>
	</g>
</pattern>
<pattern  y="608.9" width="72" height="72" patternUnits="userSpaceOnUse" id="_10_lpi_10_9" viewBox="72.2 -72 72 72" style="overflow:visible;">
	<g>
		<rect x="72.2" y="-72" class="st0" width="72" height="72"/>
		<rect x="72.2" y="-72" class="st0" width="72" height="72"/>
		<line class="st1" x1="144" y1="-68.4" x2="216.5" y2="-68.4"/>
		<line class="st1" x1="144" y1="-54" x2="216.5" y2="-54"/>
		<line class="st1" x1="144" y1="-39.6" x2="216.5" y2="-39.6"/>
		<line class="st1" x1="144" y1="-25.2" x2="216.5" y2="-25.2"/>
		<line class="st1" x1="144" y1="-10.8" x2="216.5" y2="-10.8"/>
		<line class="st1" x1="144" y1="-61.2" x2="216.5" y2="-61.2"/>
		<line class="st1" x1="144" y1="-46.8" x2="216.5" y2="-46.8"/>
		<line class="st1" x1="144" y1="-32.4" x2="216.5" y2="-32.4"/>
		<line class="st1" x1="144" y1="-18" x2="216.5" y2="-18"/>
		<line class="st1" x1="144" y1="-3.6" x2="216.5" y2="-3.6"/>
		<line class="st1" x1="72" y1="-68.4" x2="144.5" y2="-68.4"/>
		<line class="st1" x1="72" y1="-54" x2="144.5" y2="-54"/>
		<line class="st1" x1="72" y1="-39.6" x2="144.5" y2="-39.6"/>
		<line class="st1" x1="72" y1="-25.2" x2="144.5" y2="-25.2"/>
		<line class="st1" x1="72" y1="-10.8" x2="144.5" y2="-10.8"/>
		<line class="st1" x1="72" y1="-61.2" x2="144.5" y2="-61.2"/>
		<line class="st1" x1="72" y1="-46.8" x2="144.5" y2="-46.8"/>
		<line class="st1" x1="72" y1="-32.4" x2="144.5" y2="-32.4"/>
		<line class="st1" x1="72" y1="-18" x2="144.5" y2="-18"/>
		<line class="st1" x1="72" y1="-3.6" x2="144.5" y2="-3.6"/>
		<line class="st1" x1="0" y1="-68.4" x2="72.5" y2="-68.4"/>
		<line class="st1" x1="0" y1="-54" x2="72.5" y2="-54"/>
		<line class="st1" x1="0" y1="-39.6" x2="72.5" y2="-39.6"/>
		<line class="st1" x1="0" y1="-25.2" x2="72.5" y2="-25.2"/>
		<line class="st1" x1="0" y1="-10.8" x2="72.5" y2="-10.8"/>
		<line class="st1" x1="0" y1="-61.2" x2="72.5" y2="-61.2"/>
		<line class="st1" x1="0" y1="-46.8" x2="72.5" y2="-46.8"/>
		<line class="st1" x1="0" y1="-32.4" x2="72.5" y2="-32.4"/>
		<line class="st1" x1="0" y1="-18" x2="72.5" y2="-18"/>
		<line class="st1" x1="0" y1="-3.6" x2="72.5" y2="-3.6"/>
	</g>
</pattern>
<g>
	<g id="Layer_1_00000079454586176073119020000005390069363078658456_">
		<g id="Layer_1-2">
			<rect x="25.8" y="33.7" class="st2" width="1177.5" height="552"/>
			<rect x="1171" y="25.6" class="st2" width="45.7" height="63.4"/>
			<rect x="1168.6" y="542.1" class="st2" width="44.5" height="48.2"/>
			<path d="M1240.1,17.9c-157.1-7.5-314.9-8.6-472.6-7.1c-158.4,1.5-316.7,3.7-475.1,5.5c-44.5,0.5-88.9,1.1-133.3,2.2
				c-34.2,0.8-68.2,1.6-102,3.8c-0.3-5.5-1.2-11-2.6-16.3c-1.8-6.4-20.4-8.7-24.7-1.7C18.5,22.5,16.9,41.8,14.6,60.7
				c-2.3,19.1-4.1,38.2-5.4,57.4C6.7,156.3,7,194.6,7.7,232.9c1.3,76.6,5.6,153.3,4.1,229.9c-0.9,43.6-3.5,87-11.6,130.4
				c-2,10.7,22.2,14.1,37.7,10c37,0.2,74.7-2.5,111.7-3.7c37.6-1.2,75.2-2.2,112.8-3.1c75.3-1.8,150.7-3.2,226.2-4.2
				c151-1.7,302-0.2,452.9,4.4c84.4,2.6,168.7,7,252.6,12.2c14.6,0.9,27.2-6.7,27.2-13.2c0-0.7-0.1-1.4-0.3-2
				c10.8-0.2,20.8-3.7,19.7-10.4c-22.6-146.4-42.1-293.7-22-440.4c2.8-20.6,6.8-41.2,10.9-61.8c2-10.3,4.2-20.5,6.8-30.8
				c0.5-2,0.9-4,1.3-6c14.5,0.2,27.4-3.7,29.6-11.4C1269.7,24.5,1256.7,18.7,1240.1,17.9z M276.1,572c-43.1,1.9-86.1,4.1-129,6.7
				c-37,2.2-75.5,3.5-112.2,7.1c13.5-148.4,0.4-296.6,1.7-445c0.2-20.7,0.9-41.4,2.3-62.1c0.8-12.5,2.9-25.2,3.1-37.8
				c69.2,3.6,140.4,2.4,209.6,2c80.6-0.4,161.2-0.9,241.8-1.3c161-0.8,322.1-2.7,483.1-0.2c79.4,1.2,158.3,3.7,236.9,9
				c-4.6,10.3-6.4,21.1-9.3,30.8c-5,17.2-9.2,34.7-12.4,52.3c-6.6,35.3-10.7,70.9-12.5,106.7c-3.7,71.9,2.2,143.8,10.7,215.6
				c4.7,40.1,10.1,80.2,15.3,120.2l-1.9-0.1C896,562.8,583.7,558.4,276.1,572z"/>
		</g>
		<g>
			<g id="XMLID_00000102546676949823703070000017496248042443776141_">
				
					<image style="overflow:visible;" width="221" height="281" xlink:href="5C51D1A8.png"  transform="matrix(1 0 0 1 722.44 81.3604)">
				</image>
				<g>
					<g>
						<polygon id="XMLID_00000037683387269436636830000005511078744837407931_" class="st3" points="934.4,137.7 886.6,137.7 
							886.6,165 899.4,165 899.4,196.3 934.4,183.6 						"/>
						<polygon id="XMLID_00000074407605014034138870000005819583103125825975_" class="st3" points="881.3,195.1 845.3,181.8 
							845.3,132.5 791.5,132.5 791.5,101.4 934.4,101.4 934.4,132.5 881.4,132.5 						"/>
						<polygon id="XMLID_00000176039943904838158940000000038054206028077213_" class="st3" points="826.5,180.5 826.5,165 
							838.8,165 838.8,137.7 791.5,137.7 791.5,198.3 898.6,236.2 898.6,259.3 882,266.3 882,234.7 844.7,220.9 844.7,266.4 
							827.4,260.5 827.4,221.3 791.5,234.9 791.5,277.5 863,303.8 934.4,279 934.4,218.1 						"/>
					</g>
				</g>
			</g>
			<g id="XMLID_15_">
				<g>
					<polygon id="XMLID_00000066495956574521173620000000215704384809023136_" class="st4" points="912.4,151.7 864.6,151.7 
						864.6,179 877.4,179 877.4,210.3 912.4,197.6 					"/>
					<polygon id="XMLID_00000163756455484411823120000012145415495975283357_" class="st4" points="859.3,209.1 823.3,195.8 
						823.3,146.5 769.5,146.5 769.5,115.4 912.4,115.4 912.4,146.5 859.4,146.5 					"/>
					<polygon id="XMLID_00000106861840603795157670000014029337235581624982_" class="st4" points="804.5,194.5 804.5,179 
						816.8,179 816.8,151.7 769.5,151.7 769.5,212.3 876.6,250.2 876.6,273.3 860,280.3 860,248.7 822.7,234.9 822.7,280.4 
						805.4,274.5 805.4,235.3 769.5,248.9 769.5,291.5 841,317.8 912.4,293 912.4,232.1 					"/>
				</g>
				<g>
					<g>
						<polygon id="XMLID_00000173860717558017038780000016075160617482332834_" class="st3" points="934.4,137.7 886.6,137.7 
							886.6,165 899.4,165 899.4,196.3 934.4,183.6 						"/>
						<polygon id="XMLID_00000168798127133646677520000013924408718822714767_" class="st3" points="881.3,195.1 845.3,181.8 
							845.3,132.5 791.5,132.5 791.5,101.4 934.4,101.4 934.4,132.5 881.4,132.5 						"/>
						<polygon id="XMLID_00000043456163731466303630000003991945526389766793_" class="st3" points="826.5,180.5 826.5,165 
							838.8,165 838.8,137.7 791.5,137.7 791.5,198.3 898.6,236.2 898.6,259.3 882,266.3 882,234.7 844.7,220.9 844.7,266.4 
							827.4,260.5 827.4,221.3 791.5,234.9 791.5,277.5 863,303.8 934.4,279 934.4,218.1 						"/>
					</g>
				</g>
			</g>
		</g>
		
			<image style="overflow:visible;opacity:0.4;enable-background:new    ;" width="887" height="368" xlink:href="5C51D1A9.png"  transform="matrix(1 0 0 1 140 160.94)">
		</image>
		<polygon points="201.7,296.3 201.7,209.6 168.6,209.6 168.6,167.5 278.8,167.5 278.8,209.6 245.6,209.6 245.6,296.3 		"/>
		<rect x="284.4" y="167.5" width="43.9" height="128.8"/>
		<polygon points="426.9,296.3 426.9,248.6 411.7,271.8 400.3,271.8 385.4,249.1 385.4,296.3 341.7,296.3 341.7,167.5 383.1,167.5 
			406.1,204.6 429.2,167.5 470.5,167.5 470.5,296.3 		"/>
		<polygon points="482.8,296.3 482.8,167.5 584.7,167.5 584.7,208.8 526.5,208.8 526.5,210.9 577.8,210.9 577.8,252.2 526.5,252.2 
			526.5,255 585.5,255 585.5,296.3 		"/>
		<path d="M642,297.9c-9.5,0-18.8-1.7-27.7-4.9c-9.3-3.3-17.8-8.5-25.1-15.1l-7.1-6.5l24.8-29.7c-1.1-0.7-2.1-1.4-3.1-2.2
			c-4.3-3.4-7.8-7.7-10.1-12.7c-2.5-5.6-3.7-11.7-3.5-17.8v-0.3c-0.1-6.1,1.2-12.1,3.7-17.7c2.4-5.2,5.9-9.9,10.3-13.7
			c4.5-3.8,9.7-6.8,15.4-8.6c6-1.9,12.2-2.9,18.5-2.8c8.6-0.1,17.2,1.3,25.3,4.1c7.7,2.8,14.9,6.8,21.3,11.9l7.3,5.8L670.4,219
			c3.2,1.7,6.2,3.7,9,6c4,3.4,7.2,7.7,9.3,12.5c2.2,5.2,3.2,10.7,3.1,16.3v0.3c0.1,6.4-1.2,12.8-3.9,18.6c-2.5,5.5-6.3,10.3-11,14.1
			c-4.7,3.8-10.1,6.6-15.9,8.3C654.9,297,648.5,297.9,642,297.9z M618.5,247.5c3.4,2.6,7.1,4.8,11,6.6c4.1,1.8,8.5,2.7,13,2.7
			c1.5,0,3.1-0.1,4.6-0.5c-0.8-0.3-1.8-0.8-3.1-1.3c-2.5-0.9-5.9-1.9-10.2-3C628.6,250.8,623.5,249.2,618.5,247.5L618.5,247.5z
			 M635.3,207.2c0.8,0.3,1.9,0.7,3.2,1.1c3,0.9,6.7,2,11.3,3.2c2.1,0.6,4.2,1.1,6.1,1.8c-2.6-1.5-5.3-2.9-8.1-4.1
			c-3.2-1.4-6.7-2.1-10.2-2.1C636.9,207.1,636.1,207.1,635.3,207.2L635.3,207.2z"/>
		<path d="M225.2,497.9c-9.5,0-18.9-1.7-27.8-4.9c-9.3-3.3-17.8-8.5-25.1-15.1l-7.1-6.5l24.8-29.7c-1.1-0.7-2.1-1.4-3.1-2.2
			c-4.3-3.4-7.8-7.7-10.1-12.7c-2.5-5.6-3.7-11.7-3.5-17.8v-0.3c-0.1-6.1,1.2-12.1,3.7-17.7c2.4-5.2,5.9-9.9,10.3-13.7
			c4.5-3.8,9.7-6.8,15.4-8.6c6-1.9,12.2-2.9,18.5-2.8c8.6-0.1,17.2,1.3,25.4,4.1c7.7,2.8,14.9,6.8,21.3,11.9l7.3,5.8L253.6,419
			c3.2,1.7,6.2,3.7,9,6c4,3.4,7.2,7.7,9.4,12.5c2.2,5.2,3.2,10.7,3.1,16.3v0.3c0.1,6.4-1.2,12.7-3.9,18.6
			c-2.5,5.5-6.3,10.3-10.9,14.1c-4.7,3.8-10.1,6.6-15.9,8.3C238.2,497,231.7,497.9,225.2,497.9z M201.7,447.5
			c3.4,2.6,7.1,4.8,11,6.6c4.1,1.8,8.5,2.7,13,2.7c1.5,0,3.1-0.1,4.6-0.5c-0.8-0.4-1.8-0.8-3.1-1.3c-2.5-0.9-5.9-1.9-10.1-3
			C211.8,450.8,206.7,449.2,201.7,447.5z M218.5,407.2c0.8,0.3,1.9,0.7,3.2,1.1c3,0.9,6.8,2,11.3,3.2c2.1,0.5,4.2,1.1,6.1,1.8
			c-2.6-1.5-5.3-2.9-8.1-4.1c-3.2-1.4-6.7-2.1-10.2-2.1C220.1,407.1,219.3,407.1,218.5,407.2z"/>
		<path d="M375.9,491.1c-9.6,4.8-20.3,7.2-31,7.1c-9.3,0.1-18.4-1.7-27-5.2c-8-3.3-15.2-8-21.4-14c-6.1-6-10.9-13.1-14.2-21
			c-3.4-8.1-5.1-16.9-5-25.7v-0.3c-0.1-8.8,1.7-17.6,5.1-25.8c6.8-16,19.6-28.7,35.7-35.3c17.4-6.9,36.7-6.9,54.1,0
			c8,3.3,15.2,8,21.4,14c6.1,6,10.9,13.1,14.2,21c3.4,8.1,5.1,16.9,5.1,25.7v0.3c0,6.6-1,13.2-3,19.5c-1,3.3-2.3,6.5-3.8,9.5
			l12.7,10.7l-28.8,32L375.9,491.1z M344.9,407.7c-3.2-0.1-6.3,0.6-9.2,1.8c-2.6,1.1-5,2.8-6.9,4.9c-2,2.3-3.7,4.9-4.8,7.7
			c-1.2,3-1.7,6.2-1.7,9.5v0.3c0,3.3,0.6,6.5,1.7,9.6c1,2.5,2.3,4.9,4.1,6.9l28.1-31.6l11.1,10.1c-0.3-1.6-0.7-3.1-1.3-4.6
			c-2.1-5.7-6.5-10.3-12.1-12.8C351.1,408.3,348,407.7,344.9,407.7L344.9,407.7z"/>
		<path d="M475.8,498c-17.2,0-31.1-5-41.4-14.9s-15.6-24.6-15.6-43.4v-72.1h43.9v71.5c0,6.2,1.2,10.8,3.6,13.4
			c1.4,1.5,3.9,3.5,9.9,3.5s8.6-2,10-3.4c2.3-2.4,3.5-6.8,3.5-12.7v-72.3h43.9v71.4c0.1,8.5-1.2,17-3.9,25
			c-2.5,7.1-6.6,13.6-11.9,19c-5.3,5.2-11.8,9.2-18.9,11.5C491.3,496.9,483.6,498.1,475.8,498z"/>
		<polygon points="628.3,496.3 618.4,471.9 585.8,471.9 575.9,496.3 529.6,496.3 584.8,366.7 620,366.7 675.2,496.3 		"/>
		<path d="M743.8,496.3l-23.3-34.8H717v34.8h-43.9V367.5h59.7c15.4,0,27.8,4,36.8,12c9.4,8.3,14.2,19.7,14.2,33.9v0.3
			c0,11-2.9,20.3-8.5,27.6c-2.9,3.7-6.3,7-10.2,9.7l30.9,45.2H743.8z M731.2,420.4c3.3,0,5.7-0.6,7-1.7c0.7-0.6,1.4-1.4,1.4-3.7
			v-0.3c0-2.9-0.8-3.5-1.1-3.8c-1.5-1.1-4.2-1.8-7.7-1.8H717v11.2H731.2z"/>
		<polygon points="791.6,496.3 791.6,367.5 893.5,367.5 893.5,408.8 835.3,408.8 835.3,410.9 886.5,410.9 886.5,452.2 835.3,452.2 
			835.3,455 894.3,455 894.3,496.3 		"/>
		<path d="M963,498.2c-9,0.1-17.9-1.7-26.2-5.2c-15.8-6.6-28.3-19.2-34.7-35.1c-3.3-8.2-5-16.9-4.9-25.7v-0.3
			c-0.1-17.4,6.6-34.2,18.7-46.7c6-6.1,13.2-11,21.2-14.3c8.5-3.5,17.7-5.3,26.9-5.2c5.3,0,10.6,0.4,15.8,1.4
			c4.6,0.9,9.1,2.2,13.4,4c4,1.7,7.8,3.8,11.4,6.4c3.3,2.4,6.5,5,9.3,7.9l6.6,6.6l-28,32.3l-7.6-6.8c-3.2-3-6.8-5.4-10.7-7.4
			c-3.3-1.5-6.8-2.3-10.4-2.2c-2.9,0-5.9,0.6-8.5,1.8c-2.6,1.1-4.8,2.8-6.7,4.9c-2,2.2-3.6,4.8-4.6,7.7c-1.1,3.1-1.7,6.3-1.7,9.6
			v0.3c0,3.3,0.6,6.6,1.7,9.7c1,2.8,2.6,5.5,4.6,7.8c3.9,4.4,9.4,6.8,15.3,6.7c3.8,0.2,7.6-0.6,11.1-2.2c3.9-2.1,7.5-4.8,10.7-7.8
			l7.1-6.6l28.8,29.1l-6.5,7c-3,3.3-6.3,6.3-9.8,9.1c-7.5,6-16.4,10.1-25.8,12C973.9,497.7,968.5,498.2,963,498.2z"/>
		<polygon points="221.7,276.3 221.7,189.6 188.6,189.6 188.6,147.5 298.8,147.5 298.8,189.6 265.6,189.6 265.6,276.3 		"/>
		<rect x="304.4" y="147.5" width="43.9" height="128.8"/>
		<polygon points="446.9,276.3 446.9,228.6 431.7,251.8 420.3,251.8 405.4,229.1 405.4,276.3 361.7,276.3 361.7,147.5 403.1,147.5 
			426.1,184.6 449.2,147.5 490.5,147.5 490.5,276.3 		"/>
		<polygon points="502.8,276.3 502.8,147.5 604.7,147.5 604.7,188.8 546.5,188.8 546.5,190.9 597.8,190.9 597.8,232.2 546.5,232.2 
			546.5,235 605.5,235 605.5,276.3 		"/>
		<path d="M662,277.9c-9.5,0-18.8-1.7-27.7-4.9c-9.3-3.3-17.8-8.5-25.1-15.1l-7.1-6.4l24.8-29.7c-1.1-0.7-2.1-1.4-3.1-2.2
			c-4.3-3.4-7.8-7.7-10.1-12.7c-2.5-5.6-3.7-11.7-3.5-17.8v-0.3c-0.1-6.1,1.2-12.1,3.7-17.7c2.4-5.2,5.9-9.9,10.3-13.7
			c4.5-3.8,9.7-6.8,15.4-8.6c6-1.9,12.2-2.9,18.5-2.8c8.6-0.1,17.2,1.3,25.3,4.1c7.7,2.8,14.9,6.8,21.3,11.9l7.3,5.8L690.4,199
			c3.2,1.7,6.2,3.7,9,6c4,3.4,7.2,7.7,9.3,12.5c2.2,5.2,3.2,10.7,3.1,16.3v0.3c0.1,6.4-1.2,12.8-3.9,18.6c-2.5,5.5-6.3,10.3-11,14.1
			c-4.7,3.8-10.1,6.6-15.9,8.3C674.9,277,668.5,277.9,662,277.9z M638.5,227.5c3.4,2.6,7.1,4.8,11,6.6c4.1,1.8,8.5,2.7,13,2.7
			c1.5,0,3.1-0.1,4.6-0.5c-0.8-0.4-1.8-0.8-3.1-1.3c-2.5-0.9-5.9-1.9-10.2-3C648.6,230.8,643.5,229.2,638.5,227.5L638.5,227.5z
			 M655.3,187.2c0.8,0.3,1.9,0.7,3.2,1.1c3,0.9,6.7,2,11.3,3.2c2.1,0.6,4.2,1.1,6.1,1.8c-2.6-1.5-5.3-2.9-8.1-4.1
			c-3.2-1.4-6.7-2.1-10.2-2.1C656.9,187.1,656.1,187.1,655.3,187.2L655.3,187.2z"/>
		<path d="M245.2,477.9c-9.5,0-18.9-1.7-27.8-4.9c-9.3-3.3-17.8-8.5-25.1-15.1l-7.1-6.5l24.8-29.7c-1.1-0.7-2.1-1.4-3.1-2.2
			c-4.3-3.4-7.8-7.7-10.1-12.7c-2.5-5.6-3.7-11.7-3.5-17.8v-0.3c-0.1-6.1,1.2-12.1,3.7-17.7c2.4-5.2,5.9-9.9,10.3-13.7
			c4.5-3.8,9.7-6.8,15.4-8.6c6-1.9,12.2-2.9,18.5-2.8c8.6-0.1,17.2,1.3,25.3,4.1c7.7,2.8,14.9,6.8,21.3,11.9l7.3,5.8L273.6,399
			c3.2,1.7,6.2,3.7,9,6c4,3.4,7.2,7.7,9.4,12.5c2.2,5.2,3.2,10.7,3.1,16.3v0.3c0.1,6.4-1.2,12.7-3.9,18.6
			c-2.5,5.5-6.3,10.3-10.9,14.1c-4.7,3.8-10.1,6.6-15.9,8.3C258.2,477,251.7,477.9,245.2,477.9z M221.7,427.5
			c3.4,2.6,7.1,4.8,11,6.6c4.1,1.8,8.5,2.7,13,2.7c1.5,0,3.1-0.1,4.6-0.5c-0.8-0.4-1.8-0.8-3.1-1.3c-2.5-0.9-5.9-1.9-10.1-3
			C231.8,430.8,226.7,429.2,221.7,427.5z M238.5,387.2c0.8,0.3,1.9,0.7,3.2,1.1c3,0.9,6.8,2,11.3,3.2c2.1,0.5,4.2,1.1,6.1,1.8
			c-2.6-1.5-5.3-2.9-8.1-4.1c-3.2-1.4-6.7-2.1-10.2-2.1C240.1,387.1,239.3,387.1,238.5,387.2z"/>
		<path d="M395.9,471.1c-9.6,4.8-20.3,7.2-31,7.1c-9.3,0.1-18.4-1.7-27-5.2c-8-3.3-15.2-8-21.4-14c-6.1-6-10.9-13.1-14.2-21
			c-3.4-8.1-5.1-16.9-5-25.7v-0.3c-0.1-8.8,1.7-17.6,5.1-25.8c6.8-16,19.6-28.7,35.7-35.3c17.4-6.9,36.7-6.9,54.1,0
			c8,3.3,15.2,8,21.4,14c6.1,6,10.9,13.1,14.2,21c3.4,8.1,5.1,16.9,5.1,25.7v0.3c0,6.6-1,13.2-3,19.5c-1,3.3-2.3,6.5-3.8,9.5
			l12.7,10.7l-28.8,32L395.9,471.1z M364.9,387.7c-3.2-0.1-6.3,0.6-9.2,1.8c-2.6,1.1-5,2.8-6.9,4.9c-2,2.3-3.7,4.9-4.8,7.7
			c-1.2,3-1.7,6.2-1.7,9.5v0.3c0,3.3,0.6,6.5,1.7,9.6c1,2.5,2.3,4.9,4.1,6.9l28.1-31.6l11.1,10.1c-0.3-1.6-0.7-3.1-1.3-4.6
			c-2.1-5.7-6.5-10.3-12.1-12.8C371.1,388.3,368,387.7,364.9,387.7L364.9,387.7z"/>
		<path d="M495.8,478c-17.2,0-31.1-5-41.4-14.9s-15.6-24.6-15.6-43.4v-72.1h43.9v71.5c0,6.2,1.2,10.8,3.6,13.4
			c1.4,1.5,3.9,3.5,9.9,3.5s8.6-2,10-3.4c2.3-2.4,3.5-6.8,3.5-12.7v-72.3h43.9v71.4c0.1,8.5-1.2,17-3.9,25
			c-2.5,7.1-6.6,13.6-11.9,19c-5.3,5.2-11.8,9.2-18.9,11.5C511.3,476.9,503.6,478.1,495.8,478z"/>
		<polygon points="648.3,476.3 638.4,451.9 605.8,451.9 595.9,476.3 549.6,476.3 604.8,346.7 640,346.7 695.2,476.3 		"/>
		<path d="M763.8,476.3l-23.3-34.8H737v34.8h-43.9V347.5h59.7c15.4,0,27.8,4,36.8,12c9.4,8.3,14.2,19.7,14.2,33.9v0.3
			c0,11-2.9,20.3-8.5,27.6c-2.9,3.7-6.3,7-10.2,9.7l30.9,45.2H763.8z M751.2,400.4c3.3,0,5.7-0.6,7-1.7c0.7-0.6,1.4-1.4,1.4-3.7
			v-0.3c0-2.9-0.8-3.5-1.1-3.8c-1.5-1.1-4.2-1.8-7.7-1.8H737v11.2H751.2z"/>
		<polygon points="811.6,476.3 811.6,347.5 913.5,347.5 913.5,388.8 855.3,388.8 855.3,390.9 906.5,390.9 906.5,432.2 855.3,432.2 
			855.3,435 914.3,435 914.3,476.3 		"/>
		<path d="M983,478.2c-9,0.1-17.9-1.7-26.2-5.2c-15.8-6.6-28.3-19.2-34.7-35.1c-3.3-8.2-5-16.9-4.9-25.7v-0.3
			c-0.1-17.4,6.6-34.2,18.7-46.7c6-6.1,13.2-11,21.2-14.3c8.5-3.5,17.7-5.3,26.9-5.2c5.3,0,10.6,0.4,15.8,1.4
			c4.6,0.9,9.1,2.2,13.4,4c4,1.7,7.8,3.8,11.4,6.4c3.3,2.4,6.5,5,9.3,7.9l6.6,6.6l-28,32.3l-7.6-6.8c-3.2-3-6.8-5.4-10.7-7.4
			c-3.3-1.5-6.8-2.3-10.4-2.2c-2.9,0-5.9,0.6-8.5,1.8c-2.6,1.1-4.8,2.8-6.7,4.9c-2,2.2-3.6,4.8-4.6,7.7c-1.1,3.1-1.7,6.3-1.7,9.6
			v0.3c0,3.3,0.6,6.6,1.7,9.7c1,2.8,2.6,5.5,4.6,7.8c3.9,4.4,9.4,6.8,15.3,6.7c3.8,0.2,7.6-0.6,11.1-2.2c3.9-2.1,7.5-4.8,10.7-7.8
			l7.1-6.6l28.8,29.1l-6.5,7c-3,3.3-6.3,6.3-9.8,9.1c-7.5,6-16.4,10.1-25.8,12C993.9,477.7,988.5,478.2,983,478.2z"/>
		<polygon class="st2" points="226.7,271.3 226.7,184.6 193.6,184.6 193.6,152.5 293.8,152.5 293.8,184.6 260.6,184.6 260.6,271.3 
					"/>
		<rect x="309.4" y="152.5" class="st2" width="33.9" height="118.8"/>
		<polygon class="st2" points="451.9,271.3 451.9,212 429,246.8 423,246.8 400.4,212.4 400.4,271.3 366.7,271.3 366.7,152.5 
			400.3,152.5 426.1,194.1 451.9,152.5 485.5,152.5 485.5,271.3 		"/>
		<polygon class="st2" points="507.8,271.3 507.8,152.5 599.7,152.5 599.7,183.8 541.5,183.8 541.5,195.9 592.8,195.9 592.8,227.2 
			541.5,227.2 541.5,240 600.5,240 600.5,271.3 		"/>
		<path class="st2" d="M662,272.9c-8.9,0-17.7-1.6-26-4.6c-8.7-3.1-16.6-7.9-23.4-14.1L609,251l20.4-24.4l3.8,3.1
			c4.3,3.6,9.1,6.6,14.2,9c4.8,2.1,9.9,3.2,15.1,3.1c3.9,0,7-0.6,8.8-1.9c1.2-0.7,2-2,1.9-3.4v-0.3c0-0.7-0.1-1.4-0.4-2
			c-0.4-0.5-0.9-1-1.5-1.3c-1.8-1.1-3.7-1.9-5.7-2.6c-2.7-1-6.3-2-10.7-3.1c-5.2-1.3-10.4-2.8-15.5-4.7c-4.6-1.6-8.9-4-12.7-6.9
			c-3.7-2.9-6.7-6.6-8.7-10.9c-2.1-4.9-3.2-10.3-3-15.6v-0.3c-0.1-5.4,1-10.7,3.2-15.6c2.1-4.6,5.2-8.7,9.1-12c4-3.4,8.7-6,13.7-7.6
			c5.4-1.8,11.1-2.7,16.9-2.6c8.1-0.1,16.1,1.2,23.7,3.9c7.2,2.6,13.9,6.3,19.8,11.1l3.7,2.9l-17.9,26l-4.1-2.8
			c-4.2-2.9-8.7-5.4-13.4-7.4c-3.8-1.6-7.9-2.5-12.1-2.5c-4.4,0-6.5,0.9-7.4,1.7c-1,0.6-1.6,1.7-1.6,2.8v0.3c0,0.8,0.1,1.6,0.5,2.3
			c0.4,0.6,1,1.2,1.8,1.5c2,1.1,4,1.9,6.2,2.5c3,0.9,6.8,2,11.4,3.2c5.2,1.3,10.4,3.1,15.4,5.1c4.4,1.8,8.6,4.3,12.2,7.3
			c3.4,2.9,6.2,6.6,8,10.7c1.9,4.5,2.8,9.4,2.7,14.3v0.3c0.1,5.7-1.1,11.3-3.4,16.5c-2.2,4.8-5.5,9-9.5,12.3
			c-4.2,3.4-9,5.9-14.2,7.4C673.9,272.1,668,272.9,662,272.9z"/>
		<path class="st2" d="M245.2,472.9c-8.9,0-17.7-1.6-26.1-4.6c-8.7-3.1-16.6-7.9-23.4-14.1l-3.6-3.2l20.4-24.4l3.8,3.1
			c4.3,3.6,9.1,6.6,14.2,9c4.8,2.1,9.9,3.2,15.1,3.1c3.9,0,6.9-0.6,8.8-1.9c1.2-0.7,2-2,1.9-3.4v-0.3c0-0.7-0.1-1.4-0.4-2
			c-0.4-0.5-0.9-1-1.5-1.3c-1.8-1.1-3.7-1.9-5.7-2.6c-2.7-1-6.3-2-10.6-3.1c-5.3-1.3-10.4-2.8-15.5-4.7c-4.6-1.6-8.9-4-12.7-6.9
			c-3.7-2.9-6.7-6.6-8.7-10.9c-2.2-4.9-3.2-10.3-3.1-15.6v-0.3c-0.1-5.4,1-10.7,3.2-15.5c2.1-4.6,5.2-8.7,9.1-12
			c4-3.4,8.7-6,13.7-7.6c5.5-1.8,11.2-2.6,17-2.6c8.1-0.1,16.1,1.2,23.7,3.9c7.2,2.6,13.9,6.3,19.9,11l3.6,2.9l-17.9,26l-4.1-2.8
			c-4.2-2.9-8.7-5.4-13.4-7.4c-3.8-1.6-7.9-2.5-12.1-2.5c-4.4,0-6.4,0.9-7.4,1.7c-1,0.6-1.6,1.7-1.6,2.8v0.3c0,0.8,0.1,1.6,0.4,2.3
			c0.4,0.6,1,1.2,1.8,1.5c2,1.1,4,1.9,6.2,2.5c3,0.9,6.9,2,11.4,3.2c5.2,1.3,10.4,3.1,15.4,5.1c4.4,1.8,8.6,4.3,12.2,7.3
			c3.4,2.9,6.2,6.6,8,10.7c1.9,4.5,2.8,9.4,2.6,14.3v0.3c0.1,5.7-1.1,11.3-3.4,16.5c-2.2,4.8-5.5,9-9.5,12.4
			c-4.2,3.4-9,5.9-14.2,7.4C257.1,472.1,251.2,472.9,245.2,472.9z"/>
		<path class="st2" d="M396.6,465c-4.1,2.3-8.5,4.2-13.1,5.5c-6.1,1.8-12.4,2.7-18.7,2.6c-8.6,0.1-17.1-1.6-25.1-4.8
			c-7.4-3-14.1-7.4-19.8-13c-5.6-5.5-10.1-12.1-13.1-19.3c-3.1-7.5-4.7-15.6-4.7-23.8v-0.3c0-8.2,1.6-16.3,4.8-23.8
			c6.3-14.8,18.1-26.6,33.1-32.6c16.1-6.4,34.1-6.4,50.2,0c7.4,3,14.1,7.4,19.8,13c5.6,5.5,10.1,12.1,13.1,19.4
			c3.1,7.5,4.7,15.6,4.7,23.8v0.3c0,6.1-0.9,12.2-2.7,18c-1.3,4.3-3.1,8.4-5.4,12.3l11.8,10l-22,24.5L396.6,465z M364.9,382.7
			c-3.9,0-7.7,0.7-11.3,2.3c-3.3,1.4-6.2,3.5-8.6,6.1c-2.5,2.7-4.4,5.8-5.7,9.2c-1.4,3.6-2.1,7.4-2.1,11.3v0.3
			c0,3.9,0.7,7.8,2.1,11.4c1.3,3.4,3.3,6.6,5.8,9.2c2.5,2.6,5.5,4.8,8.9,6.3c3.5,1.6,7.4,2.3,11.2,2.3c1.3,0,2.6-0.1,3.9-0.2
			l-14.5-12.3l22-24.7l15.8,14.2c0.3-2,0.5-3.9,0.5-5.9V412c0-3.9-0.7-7.8-2.1-11.4c-2.6-7-7.9-12.6-14.7-15.6
			C372.5,383.5,368.7,382.7,364.9,382.7z"/>
		<path class="st2" d="M495.8,473c-15.9,0-28.6-4.5-38-13.5s-14.1-22.4-14.1-39.8v-67.1h34v66.5c0,7.6,1.6,13.2,4.9,16.7
			s7.6,5.1,13.6,5.1s10.4-1.6,13.6-5c3.2-3.4,4.8-8.8,4.8-16.1v-67.3h33.9v66.4c0.1,7.9-1.1,15.8-3.6,23.3
			c-2.3,6.4-5.9,12.3-10.7,17.1c-4.8,4.7-10.6,8.2-17,10.3C510.2,472,503,473.1,495.8,473z"/>
		<path class="st2" d="M651.7,471.3l-9.9-24.4h-39.3l-10,24.4h-35.3l50.9-119.6h28.7l50.9,119.6H651.7z M629.1,415.8l-7-17.1
			l-7,17.1H629.1z"/>
		<path class="st2" d="M766.4,471.3l-23.3-34.8H732v34.8h-33.9V352.5h54.7c14.1,0,25.4,3.6,33.5,10.7c8.3,7.3,12.5,17.4,12.5,30.2
			v0.3c0,9.9-2.5,18.2-7.5,24.6c-3.6,4.6-8.1,8.5-13.3,11.2l28.6,41.8H766.4z M751.2,405.4c4.6,0,8.1-1,10.3-2.9
			c2.1-1.9,3.2-4.6,3-7.5v-0.3c0-4.8-1.7-6.7-3-7.7c-2.4-1.9-6-2.8-10.8-2.8H732v21.2H751.2z"/>
		<polygon class="st2" points="816.6,471.3 816.6,352.5 908.5,352.5 908.5,383.8 850.3,383.8 850.3,395.9 901.5,395.9 901.5,427.2 
			850.3,427.2 850.3,440 909.3,440 909.3,471.3 		"/>
		<path class="st2" d="M983,473.2c-8.3,0.1-16.5-1.6-24.2-4.8c-7.2-3-13.8-7.4-19.3-13c-5.5-5.6-9.8-12.2-12.8-19.4
			c-3.1-7.6-4.6-15.7-4.6-23.8v-0.3c-0.1-16.1,6.1-31.6,17.3-43.2c5.5-5.7,12.2-10.2,19.5-13.2c7.9-3.3,16.4-4.9,25-4.8
			c5,0,9.9,0.4,14.8,1.4c4.3,0.8,8.4,2.1,12.4,3.7c3.7,1.6,7.2,3.5,10.4,5.8c3.1,2.2,6,4.7,8.7,7.4l3.3,3.3l-21.6,24.9l-3.8-3.4
			c-3.6-3.3-7.5-6-11.8-8.2c-3.9-1.9-8.3-2.8-12.6-2.8c-7.2-0.1-14.2,2.9-19,8.3c-2.4,2.7-4.3,5.8-5.6,9.2c-1.4,3.6-2,7.5-2,11.4
			v0.3c0,3.9,0.7,7.8,2,11.5c1.3,3.4,3.1,6.6,5.5,9.3c4.8,5.4,11.7,8.5,19,8.4c5.4,0,9.9-1,13.4-2.8c4.3-2.3,8.2-5.2,11.8-8.6
			l3.5-3.3l22,22.2l-3.3,3.5c-2.9,3.1-6,6-9.2,8.6c-3.3,2.6-7,4.9-10.8,6.7c-4.1,1.9-8.4,3.4-12.9,4.3
			C993.2,472.7,988.1,473.2,983,473.2z"/>
		<polygon class="st5" points="228.2,269.8 228.2,183.1 195.1,183.1 195.1,154 292.2,154 292.2,183.1 259.1,183.1 259.1,269.8 		"/>
		<rect x="310.9" y="154" class="st5" width="30.9" height="115.8"/>
		<polygon class="st5" points="453.4,269.8 453.4,206.9 428.2,245.2 423.8,245.2 398.9,207.4 398.9,269.8 368.2,269.8 368.2,154 
			399.5,154 426.1,196.9 452.8,154 484,154 484,269.8 		"/>
		<polygon class="st5" points="509.3,269.8 509.3,154 598.2,154 598.2,182.3 540,182.3 540,197.4 591.2,197.4 591.2,225.7 
			540,225.7 540,241.5 599,241.5 599,269.8 		"/>
		<path class="st5" d="M662,271.4c-8.7,0-17.4-1.5-25.6-4.5c-8.5-3.1-16.3-7.8-22.9-13.8l-2.5-2.3l18.5-22.2l2.7,2.2
			c4.5,3.7,9.4,6.8,14.6,9.2c4.9,2.2,10.3,3.3,15.7,3.3c4.2,0,7.5-0.7,9.7-2.1c1.6-0.9,2.6-2.7,2.5-4.6v-0.3c0-0.9-0.1-1.8-0.5-2.6
			c-0.5-0.8-1.2-1.5-2-1.9c-1.9-1.1-3.9-2.1-6-2.8c-2.7-1-6.4-2-10.8-3.2c-5.2-1.2-10.3-2.8-15.3-4.6c-4.4-1.6-8.6-3.8-12.3-6.7
			c-3.5-2.8-6.4-6.3-8.2-10.4c-2.1-4.7-3.1-9.8-2.9-15v-0.3c-0.1-5.1,1-10.2,3.1-14.9c2-4.4,5-8.3,8.7-11.5
			c3.9-3.3,8.3-5.8,13.2-7.4c5.3-1.7,10.9-2.6,16.5-2.5c7.9-0.1,15.7,1.2,23.2,3.8c7,2.5,13.6,6.2,19.4,10.8l2.6,2l-16.3,23.6
			l-2.9-2c-4.3-3-8.9-5.5-13.7-7.5c-4-1.7-8.3-2.6-12.7-2.6c-3.8,0-6.7,0.7-8.3,2c-1.3,0.9-2.2,2.4-2.1,4v0.3c0,1,0.2,2.1,0.6,3
			c0.6,0.9,1.4,1.6,2.3,2.1c2.1,1.1,4.2,2,6.5,2.6c3,0.9,6.9,2,11.5,3.2c5.2,1.3,10.2,3,15.2,5.1c4.3,1.8,8.3,4.2,11.8,7.2
			c3.3,2.8,5.9,6.3,7.6,10.2c1.8,4.3,2.7,9,2.5,13.7v0.3c0.1,5.4-1,10.8-3.3,15.8c-2.1,4.6-5.2,8.6-9.1,11.8
			c-4.1,3.3-8.7,5.7-13.7,7.2C673.6,270.6,667.8,271.4,662,271.4z"/>
		<path class="st5" d="M245.2,471.4c-8.7,0-17.4-1.5-25.6-4.5c-8.5-3.1-16.3-7.8-22.9-13.8l-2.5-2.3l18.5-22.2l2.7,2.2
			c4.4,3.7,9.3,6.8,14.6,9.2c4.9,2.2,10.3,3.3,15.7,3.3c4.2,0,7.5-0.7,9.6-2.1c1.6-0.9,2.6-2.7,2.5-4.6v-0.3c0-0.9-0.1-1.8-0.5-2.6
			c-0.5-0.8-1.2-1.5-2-1.9c-1.9-1.1-3.9-2.1-6-2.8c-2.7-1-6.4-2-10.8-3.2c-5.2-1.2-10.3-2.8-15.3-4.6c-4.4-1.6-8.6-3.8-12.3-6.7
			c-3.5-2.8-6.4-6.3-8.2-10.4c-2.1-4.7-3.1-9.8-2.9-15v-0.3c-0.1-5.1,1-10.2,3.1-14.9c2-4.4,5-8.3,8.7-11.5
			c3.9-3.3,8.3-5.8,13.1-7.4c5.3-1.7,10.9-2.6,16.5-2.5c7.9-0.1,15.7,1.2,23.2,3.8c7,2.5,13.6,6.2,19.4,10.8l2.6,2l-16.3,23.6
			l-2.9-2c-4.3-3-8.9-5.5-13.7-7.5c-4-1.7-8.3-2.6-12.6-2.6c-3.8,0-6.6,0.7-8.3,2c-1.4,0.9-2.2,2.4-2.1,4v0.3c0,1,0.2,2.1,0.6,3
			c0.6,0.9,1.4,1.6,2.3,2.1c2.1,1.1,4.2,2,6.5,2.6c3,0.9,6.9,2,11.5,3.2c5.2,1.3,10.2,3,15.2,5c4.3,1.7,8.3,4.1,11.8,7.1
			c3.3,2.8,5.9,6.2,7.7,10.1c1.8,4.3,2.7,9,2.5,13.7v0.3c0.1,5.5-1,10.9-3.3,15.9c-2.1,4.6-5.2,8.6-9.1,11.8
			c-4.1,3.3-8.7,5.7-13.7,7.2C256.8,470.6,251,471.4,245.2,471.4z"/>
		<path class="st5" d="M396.8,463.2l-0.9,0.5c-4,2.3-8.3,4.1-12.8,5.4c-5.9,1.7-12.1,2.6-18.2,2.6c-8.4,0.1-16.7-1.5-24.5-4.7
			c-7.2-3-13.8-7.3-19.4-12.7c-5.5-5.4-9.8-11.8-12.8-18.9c-3-7.3-4.6-15.2-4.5-23.2v-0.3c-0.1-8,1.5-15.9,4.6-23.2
			c6.1-14.5,17.7-25.9,32.2-31.9c7.8-3.2,16.2-4.8,24.6-4.7c8.4-0.1,16.7,1.5,24.5,4.7c7.2,3,13.8,7.3,19.4,12.7
			c5.5,5.4,9.8,11.8,12.7,18.9c3.1,7.3,4.6,15.2,4.5,23.2v0.3c0,5.9-0.9,11.8-2.6,17.5c-1.3,4.2-3.1,8.2-5.2,12l-0.6,1.1l11.6,9.8
			l-20,22.2L396.8,463.2z M364.9,381.2c-4.1-0.1-8.1,0.8-11.9,2.4c-3.4,1.5-6.5,3.7-9.1,6.5c-2.6,2.8-4.6,6.1-6,9.7
			c-1.5,3.8-2.2,7.8-2.2,11.9v0.3c0,4.1,0.7,8.1,2.2,12c1.4,3.6,3.5,6.9,6.1,9.7c2.7,2.8,5.8,5,9.3,6.6c3.7,1.6,7.8,2.5,11.8,2.4
			c1.4,0,2.7-0.1,4.1-0.2l3.4-0.4l-15.9-13.5l20-22.4l16.7,15.1l0.4-2.7c0.3-2,0.5-4.1,0.5-6.2v-0.3c0-4.1-0.7-8.1-2.2-11.9
			c-2.8-7.3-8.4-13.2-15.5-16.3C373,382,369,381.2,364.9,381.2L364.9,381.2z"/>
		<path class="st5" d="M495.8,471.5c-15.5,0-27.9-4.4-36.9-13.1s-13.7-21.8-13.7-38.7V354h30.9v65c0,8,1.8,13.9,5.3,17.8
			s8.3,5.6,14.7,5.6s11.2-1.8,14.7-5.5s5.2-9.4,5.2-17.2V354h31v64.9c0.1,7.7-1.1,15.5-3.5,22.8c-2.2,6.3-5.8,11.9-10.5,16.6
			c-4.6,4.5-10.2,8-16.4,10C509.9,470.5,502.8,471.6,495.8,471.5z"/>
		<path class="st5" d="M652.7,469.8l-9.9-24.4h-41.3l-9.9,24.4h-32l49.6-116.6h26.7l49.6,116.6H652.7z M612.9,417.3h18.5l-9.2-22.5
			L612.9,417.3z"/>
		<path class="st5" d="M767.2,469.8L743.9,435h-13.4v34.8h-30.9V354h53.2c13.8,0,24.7,3.5,32.5,10.4s12,16.8,12,29v0.3
			c0,9.6-2.4,17.5-7.2,23.7c-3.5,4.5-7.9,8.2-12.8,10.8l-1.5,0.8l27.9,40.8L767.2,469.8z M730.5,406.9h20.7c5,0,8.8-1.1,11.3-3.3
			c2.4-2.2,3.7-5.3,3.6-8.6v-0.3c0-4.1-1.2-7-3.6-8.9c-2.7-2.1-6.6-3.1-11.7-3.1h-20.3V406.9z"/>
		<polygon class="st5" points="818.1,469.8 818.1,354 907,354 907,382.3 848.8,382.3 848.8,397.4 900,397.4 900,425.7 848.8,425.7 
			848.8,441.5 907.8,441.5 907.8,469.8 		"/>
		<path class="st5" d="M983,471.7c-8.1,0.1-16.1-1.5-23.6-4.6c-14.2-5.9-25.5-17.3-31.2-31.6c-3-7.4-4.5-15.3-4.5-23.2v-0.3
			c0-7.9,1.5-15.8,4.5-23.2c2.9-7.1,7.1-13.5,12.4-19c5.4-5.5,11.9-9.9,19-12.9c7.7-3.2,16-4.8,24.4-4.7c4.9,0,9.8,0.4,14.6,1.3
			c4.1,0.8,8.2,2,12.1,3.6c3.6,1.5,7,3.4,10.2,5.7c3,2.2,5.9,4.6,8.5,7.2l2.3,2.3l-19.8,22.8l-2.7-2.4c-3.7-3.4-7.8-6.2-12.2-8.5
			c-4.1-2-8.7-3-13.3-2.9c-3.9,0-7.7,0.8-11.2,2.3c-3.4,1.5-6.4,3.7-8.9,6.5c-2.5,2.8-4.5,6.1-5.9,9.7c-1.4,3.8-2.1,7.8-2.1,11.9
			v0.3c0,4.1,0.7,8.2,2.1,12c1.3,3.6,3.3,6.9,5.8,9.8c2.5,2.8,5.5,5,8.8,6.5c3.6,1.6,7.4,2.4,11.3,2.4c5.6,0,10.4-1,14.1-3
			c4.4-2.4,8.5-5.4,12.1-8.8l2.5-2.3l20,20.2l-2.3,2.5c-2.8,3-5.9,5.9-9.1,8.4c-3.3,2.6-6.8,4.8-10.5,6.5c-4,1.9-8.2,3.3-12.5,4.1
			C993.1,471.2,988,471.7,983,471.7z"/>
		<polygon class="st2" points="227.2,270.8 227.2,184.1 194.1,184.1 194.1,155 291.2,155 291.2,184.1 258.1,184.1 258.1,270.8 		"/>
		<rect x="309.9" y="155" class="st2" width="30.9" height="115.8"/>
		<polygon class="st2" points="452.4,270.8 452.4,207.9 427.2,246.2 422.8,246.2 397.9,208.4 397.9,270.8 367.2,270.8 367.2,155 
			398.5,155 425.1,197.9 451.8,155 483,155 483,270.8 		"/>
		<polygon class="st2" points="508.3,270.8 508.3,155 597.2,155 597.2,183.3 539,183.3 539,198.4 590.2,198.4 590.2,226.7 
			539,226.7 539,242.5 598,242.5 598,270.8 		"/>
		<path class="st2" d="M661,272.4c-8.7,0-17.4-1.5-25.6-4.5c-8.5-3.1-16.3-7.8-22.9-13.8l-2.5-2.3l18.5-22.2l2.7,2.2
			c4.5,3.7,9.4,6.8,14.6,9.2c4.9,2.2,10.3,3.3,15.7,3.3c4.2,0,7.5-0.7,9.7-2.1c1.6-0.9,2.6-2.7,2.5-4.6v-0.3c0-0.9-0.1-1.8-0.5-2.6
			c-0.5-0.8-1.2-1.5-2-1.9c-1.9-1.1-3.9-2.1-6-2.8c-2.7-1-6.4-2-10.8-3.2c-5.2-1.2-10.3-2.8-15.3-4.6c-4.4-1.6-8.6-3.8-12.3-6.7
			c-3.5-2.8-6.4-6.3-8.2-10.4c-2.1-4.7-3.1-9.8-2.9-15v-0.3c-0.1-5.1,1-10.2,3.1-14.9c2-4.4,5-8.3,8.7-11.5
			c3.9-3.3,8.3-5.8,13.2-7.4c5.3-1.7,10.9-2.6,16.5-2.5c7.9-0.1,15.7,1.2,23.2,3.8c7,2.5,13.6,6.2,19.4,10.8l2.6,2l-16.3,23.6
			l-2.9-2c-4.3-3-8.9-5.5-13.7-7.5c-4-1.7-8.3-2.6-12.7-2.6c-3.8,0-6.7,0.7-8.3,2c-1.3,0.9-2.2,2.4-2.1,4v0.3c0,1,0.2,2.1,0.6,3
			c0.6,0.9,1.4,1.6,2.3,2.1c2.1,1.1,4.2,2,6.5,2.6c3,0.9,6.9,2,11.5,3.2c5.2,1.3,10.2,3,15.2,5.1c4.3,1.8,8.3,4.2,11.8,7.2
			c3.3,2.8,5.9,6.3,7.6,10.2c1.8,4.3,2.7,9,2.5,13.7v0.3c0.1,5.4-1,10.8-3.3,15.8c-2.1,4.6-5.2,8.6-9.1,11.8
			c-4.1,3.3-8.7,5.7-13.7,7.2C672.6,271.6,666.8,272.4,661,272.4z"/>
		<path class="st2" d="M244.2,472.4c-8.7,0-17.4-1.5-25.6-4.5c-8.5-3.1-16.3-7.8-22.9-13.8l-2.5-2.3l18.5-22.2l2.7,2.2
			c4.4,3.7,9.3,6.8,14.6,9.2c4.9,2.2,10.3,3.3,15.7,3.3c4.2,0,7.5-0.7,9.6-2.1c1.6-0.9,2.6-2.7,2.5-4.6v-0.3c0-0.9-0.1-1.8-0.5-2.6
			c-0.5-0.8-1.2-1.5-2-1.9c-1.9-1.1-3.9-2.1-6-2.8c-2.7-1-6.4-2-10.8-3.2c-5.2-1.2-10.3-2.8-15.3-4.6c-4.4-1.6-8.6-3.8-12.3-6.7
			c-3.5-2.8-6.4-6.3-8.2-10.4c-2.1-4.7-3.1-9.8-2.9-15v-0.3c-0.1-5.1,1-10.2,3.1-14.9c2-4.4,5-8.3,8.7-11.5
			c3.9-3.3,8.3-5.8,13.1-7.4c5.3-1.7,10.9-2.6,16.5-2.5c7.9-0.1,15.7,1.2,23.2,3.8c7,2.5,13.6,6.2,19.4,10.8l2.6,2l-16.3,23.6
			l-2.9-2c-4.3-3-8.9-5.5-13.7-7.5c-4-1.7-8.3-2.6-12.6-2.6c-3.8,0-6.6,0.7-8.3,2c-1.4,0.9-2.2,2.4-2.1,4v0.3c0,1,0.2,2.1,0.6,3
			c0.6,0.9,1.4,1.6,2.3,2.1c2.1,1.1,4.2,2,6.5,2.6c3,0.9,6.9,2,11.5,3.2c5.2,1.3,10.2,3,15.2,5c4.3,1.7,8.3,4.1,11.8,7.1
			c3.3,2.8,5.9,6.2,7.7,10.1c1.8,4.3,2.7,9,2.5,13.7v0.3c0.1,5.5-1,10.9-3.3,15.9c-2.1,4.6-5.2,8.6-9.1,11.8
			c-4.1,3.3-8.7,5.7-13.7,7.2C255.8,471.6,250,472.4,244.2,472.4z"/>
		<path class="st2" d="M395.8,464.2l-0.9,0.5c-4,2.3-8.3,4.1-12.8,5.4c-5.9,1.7-12.1,2.6-18.2,2.6c-8.4,0.1-16.7-1.5-24.5-4.7
			c-7.2-3-13.8-7.3-19.4-12.7c-5.5-5.4-9.8-11.8-12.8-18.9c-3-7.3-4.6-15.2-4.5-23.2v-0.3c-0.1-8,1.5-15.9,4.6-23.2
			c6.1-14.5,17.7-25.9,32.2-31.9c7.8-3.2,16.2-4.8,24.6-4.7c8.4-0.1,16.7,1.5,24.5,4.7c7.2,3,13.8,7.3,19.4,12.7
			c5.5,5.4,9.8,11.8,12.7,18.9c3.1,7.3,4.6,15.2,4.5,23.2v0.3c0,5.9-0.9,11.8-2.6,17.5c-1.3,4.2-3.1,8.2-5.2,12l-0.6,1.1l11.6,9.8
			l-20,22.2L395.8,464.2z M363.9,382.2c-4.1-0.1-8.1,0.8-11.9,2.4c-3.4,1.5-6.5,3.7-9.1,6.5c-2.6,2.8-4.6,6.1-6,9.7
			c-1.5,3.8-2.2,7.8-2.2,11.9v0.3c0,4.1,0.7,8.1,2.2,12c1.4,3.6,3.5,6.9,6.1,9.7c2.7,2.8,5.8,5,9.3,6.6c3.7,1.6,7.8,2.5,11.8,2.4
			c1.4,0,2.7-0.1,4.1-0.2l3.4-0.4l-15.9-13.5l20-22.4l16.7,15.1l0.4-2.7c0.3-2,0.5-4.1,0.5-6.2v-0.3c0-4.1-0.7-8.1-2.2-11.9
			c-2.8-7.3-8.4-13.2-15.5-16.3C372,383,368,382.2,363.9,382.2L363.9,382.2z"/>
		<path class="st2" d="M494.8,472.5c-15.5,0-27.9-4.4-36.9-13.1s-13.7-21.8-13.7-38.7V355h30.9v65c0,8,1.8,13.9,5.3,17.8
			s8.3,5.6,14.7,5.6s11.2-1.8,14.7-5.5s5.2-9.4,5.2-17.2V355h31v64.9c0.1,7.7-1.1,15.5-3.5,22.8c-2.2,6.3-5.8,11.9-10.5,16.6
			c-4.6,4.5-10.2,8-16.4,10C508.9,471.5,501.8,472.6,494.8,472.5z"/>
		<path class="st2" d="M651.7,470.8l-9.9-24.4h-41.3l-9.9,24.4h-32l49.6-116.6h26.7l49.6,116.6H651.7z M611.9,418.3h18.5l-9.2-22.5
			L611.9,418.3z"/>
		<path class="st2" d="M766.2,470.8L742.9,436h-13.4v34.8h-30.9V355h53.2c13.8,0,24.7,3.5,32.5,10.4s12,16.8,12,29v0.3
			c0,9.6-2.4,17.5-7.2,23.7c-3.5,4.5-7.9,8.2-12.8,10.8l-1.5,0.8l27.9,40.8L766.2,470.8z M729.5,407.9h20.7c5,0,8.8-1.1,11.3-3.3
			c2.4-2.2,3.7-5.3,3.6-8.6v-0.3c0-4.1-1.2-7-3.6-8.9c-2.7-2.1-6.6-3.1-11.7-3.1h-20.3V407.9z"/>
		<polygon class="st2" points="817.1,470.8 817.1,355 906,355 906,383.3 847.8,383.3 847.8,398.4 899,398.4 899,426.7 847.8,426.7 
			847.8,442.5 906.8,442.5 906.8,470.8 		"/>
		<path class="st2" d="M982,472.7c-8.1,0.1-16.1-1.5-23.6-4.6c-14.2-5.9-25.5-17.3-31.2-31.6c-3-7.4-4.5-15.3-4.5-23.2v-0.3
			c0-7.9,1.5-15.8,4.5-23.2c2.9-7.1,7.1-13.5,12.4-19c5.4-5.5,11.9-9.9,19-12.9c7.7-3.2,16-4.8,24.4-4.7c4.9,0,9.8,0.4,14.6,1.3
			c4.1,0.8,8.2,2,12.1,3.6c3.6,1.5,7,3.4,10.2,5.7c3,2.2,5.9,4.6,8.5,7.2l2.3,2.3l-19.8,22.8l-2.7-2.4c-3.7-3.4-7.8-6.2-12.2-8.5
			c-4.1-2-8.7-3-13.3-2.9c-3.9,0-7.7,0.8-11.2,2.3c-3.4,1.5-6.4,3.7-8.9,6.5c-2.5,2.8-4.5,6.1-5.9,9.7c-1.4,3.8-2.1,7.8-2.1,11.9
			v0.3c0,4.1,0.7,8.2,2.1,12c1.3,3.6,3.3,6.9,5.8,9.8c2.5,2.8,5.5,5,8.8,6.5c3.6,1.6,7.4,2.4,11.3,2.4c5.6,0,10.4-1,14.1-3
			c4.4-2.4,8.5-5.4,12.1-8.8l2.5-2.3l20,20.2l-2.3,2.5c-2.8,3-5.9,5.9-9.1,8.4c-3.3,2.6-6.8,4.8-10.5,6.5c-4,1.9-8.2,3.3-12.5,4.1
			C992.1,472.2,987,472.7,982,472.7z"/>
		<g class="st6">
			
				<pattern  id="SVGID_1_" xlink:href="#_10_lpi_10_" patternTransform="matrix(0.9526 -0.55 -0.55 -0.9526 -4887.958 -19870.3789)"  class="st6">
			</pattern>
			<polygon class="st7" points="226.7,271.3 226.7,184.6 193.6,184.6 193.6,152.5 293.8,152.5 293.8,184.6 260.6,184.6 260.6,271.3 
							"/>
			
				<pattern  id="SVGID_00000092416938107030823180000017788782649753822376_" xlink:href="#_10_lpi_10_" patternTransform="matrix(0.9526 -0.55 -0.55 -0.9526 -4887.958 -19870.3789)"  class="st6">
			</pattern>
			
				<rect x="309.4" y="152.5" style="fill:url(#SVGID_00000092416938107030823180000017788782649753822376_);" width="33.9" height="118.8"/>
			
				<pattern  id="SVGID_00000040543009223783888320000017739249097459608992_" xlink:href="#_10_lpi_10_" patternTransform="matrix(0.9526 -0.55 -0.55 -0.9526 -4887.958 -19870.3789)"  class="st6">
			</pattern>
			<polygon style="fill:url(#SVGID_00000040543009223783888320000017739249097459608992_);" points="451.9,271.3 451.9,212 
				429,246.8 423,246.8 400.4,212.4 400.4,271.3 366.7,271.3 366.7,152.5 400.3,152.5 426.1,194.1 451.9,152.5 485.5,152.5 
				485.5,271.3 			"/>
			
				<pattern  id="SVGID_00000040571697313039404020000010025002415920479373_" xlink:href="#_10_lpi_10_" patternTransform="matrix(0.9526 -0.55 -0.55 -0.9526 -4887.958 -19870.3789)"  class="st6">
			</pattern>
			<polygon style="fill:url(#SVGID_00000040571697313039404020000010025002415920479373_);" points="507.8,271.3 507.8,152.5 
				599.7,152.5 599.7,183.8 541.5,183.8 541.5,195.9 592.8,195.9 592.8,227.2 541.5,227.2 541.5,240 600.5,240 600.5,271.3 			"/>
			
				<pattern  id="SVGID_00000012456778015144563430000002701160137740299199_" xlink:href="#_10_lpi_10_9" patternTransform="matrix(0.9526 -0.55 -0.55 -0.9526 -4887.9478 -19870.3887)"  class="st6">
			</pattern>
			<path style="fill:url(#SVGID_00000012456778015144563430000002701160137740299199_);" d="M662,272.9c-8.9,0-17.7-1.6-26-4.6
				c-8.7-3.1-16.6-7.9-23.4-14.1L609,251l20.4-24.4l3.8,3.1c4.3,3.6,9.1,6.6,14.2,9c4.8,2.1,9.9,3.2,15.1,3.1c3.9,0,7-0.6,8.8-1.9
				c1.2-0.7,2-2,1.9-3.4v-0.3c0-0.7-0.1-1.4-0.4-2c-0.4-0.5-0.9-1-1.5-1.3c-1.8-1.1-3.7-1.9-5.7-2.6c-2.7-1-6.3-2-10.7-3.1
				c-5.2-1.3-10.4-2.8-15.5-4.7c-4.6-1.6-8.9-4-12.7-6.9c-3.7-2.9-6.7-6.6-8.7-10.9c-2.1-4.9-3.2-10.3-3-15.6v-0.3
				c-0.1-5.4,1-10.7,3.2-15.6c2.1-4.6,5.2-8.7,9.1-12c4-3.4,8.7-6,13.7-7.6c5.4-1.8,11.1-2.7,16.9-2.6c8.1-0.1,16.1,1.2,23.7,3.9
				c7.2,2.6,13.9,6.3,19.8,11.1l3.7,2.9l-17.9,26l-4.1-2.8c-4.2-2.9-8.7-5.4-13.4-7.4c-3.8-1.6-7.9-2.5-12.1-2.5
				c-4.4,0-6.5,0.9-7.4,1.7c-1,0.6-1.6,1.7-1.6,2.8v0.3c0,0.8,0.1,1.6,0.5,2.3c0.4,0.6,1,1.2,1.8,1.5c2,1.1,4,1.9,6.2,2.5
				c3,0.9,6.8,2,11.4,3.2c5.2,1.3,10.4,3.1,15.4,5.1c4.4,1.8,8.6,4.3,12.2,7.3c3.4,2.9,6.2,6.6,8,10.7c1.9,4.5,2.8,9.4,2.7,14.3v0.3
				c0.1,5.7-1.1,11.3-3.4,16.5c-2.2,4.8-5.5,9-9.5,12.3c-4.2,3.4-9,5.9-14.2,7.4C673.9,272.1,668,272.9,662,272.9z"/>
			
				<pattern  id="SVGID_00000183217584881159885760000010726763966974889406_" xlink:href="#_10_lpi_10_9" patternTransform="matrix(0.9526 -0.55 -0.55 -0.9526 -4887.9478 -19870.3887)"  class="st6">
			</pattern>
			<path style="fill:url(#SVGID_00000183217584881159885760000010726763966974889406_);" d="M245.2,472.9c-8.9,0-17.7-1.6-26.1-4.6
				c-8.7-3.1-16.6-7.9-23.4-14.1l-3.6-3.2l20.4-24.4l3.8,3.1c4.3,3.6,9.1,6.6,14.2,9c4.8,2.1,9.9,3.2,15.1,3.1
				c3.9,0,6.9-0.6,8.8-1.9c1.2-0.7,2-2,1.9-3.4v-0.3c0-0.7-0.1-1.4-0.4-2c-0.4-0.5-0.9-1-1.5-1.3c-1.8-1.1-3.7-1.9-5.7-2.6
				c-2.7-1-6.3-2-10.6-3.1c-5.3-1.3-10.4-2.8-15.5-4.7c-4.6-1.6-8.9-4-12.7-6.9c-3.7-2.9-6.7-6.6-8.7-10.9
				c-2.2-4.9-3.2-10.3-3.1-15.6v-0.3c-0.1-5.4,1-10.7,3.2-15.5c2.1-4.6,5.2-8.7,9.1-12c4-3.4,8.7-6,13.7-7.6
				c5.5-1.8,11.2-2.6,17-2.6c8.1-0.1,16.1,1.2,23.7,3.9c7.2,2.6,13.9,6.3,19.9,11l3.6,2.9l-17.9,26l-4.1-2.8
				c-4.2-2.9-8.7-5.4-13.4-7.4c-3.8-1.6-7.9-2.5-12.1-2.5c-4.4,0-6.4,0.9-7.4,1.7c-1,0.6-1.6,1.7-1.6,2.8v0.3c0,0.8,0.1,1.6,0.4,2.3
				c0.4,0.6,1,1.2,1.8,1.5c2,1.1,4,1.9,6.2,2.5c3,0.9,6.9,2,11.4,3.2c5.2,1.3,10.4,3.1,15.4,5.1c4.4,1.8,8.6,4.3,12.2,7.3
				c3.4,2.9,6.2,6.6,8,10.7c1.9,4.5,2.8,9.4,2.6,14.3v0.3c0.1,5.7-1.1,11.3-3.4,16.5c-2.2,4.8-5.5,9-9.5,12.4
				c-4.2,3.4-9,5.9-14.2,7.4C257.1,472.1,251.2,472.9,245.2,472.9z"/>
			
				<pattern  id="SVGID_00000076563944026822743350000010832898723694180237_" xlink:href="#_10_lpi_10_9" patternTransform="matrix(0.9526 -0.55 -0.55 -0.9526 -4887.9478 -19870.3887)"  class="st6">
			</pattern>
			<path style="fill:url(#SVGID_00000076563944026822743350000010832898723694180237_);" d="M396.6,465c-4.1,2.3-8.5,4.2-13.1,5.5
				c-6.1,1.8-12.4,2.7-18.7,2.6c-8.6,0.1-17.1-1.6-25.1-4.8c-7.4-3-14.1-7.4-19.8-13c-5.6-5.5-10.1-12.1-13.1-19.3
				c-3.1-7.5-4.7-15.6-4.7-23.8v-0.3c0-8.2,1.6-16.3,4.8-23.8c6.3-14.8,18.1-26.6,33.1-32.6c16.1-6.4,34.1-6.4,50.2,0
				c7.4,3,14.1,7.4,19.8,13c5.6,5.5,10.1,12.1,13.1,19.4c3.1,7.5,4.7,15.6,4.7,23.8v0.3c0,6.1-0.9,12.2-2.7,18
				c-1.3,4.3-3.1,8.4-5.4,12.3l11.8,10l-22,24.5L396.6,465z M364.9,382.7c-3.9,0-7.7,0.7-11.3,2.3c-3.3,1.4-6.2,3.5-8.6,6.1
				c-2.5,2.7-4.4,5.8-5.7,9.2c-1.4,3.6-2.1,7.4-2.1,11.3v0.3c0,3.9,0.7,7.8,2.1,11.4c1.3,3.4,3.3,6.6,5.8,9.2
				c2.5,2.6,5.5,4.8,8.9,6.3c3.5,1.6,7.4,2.3,11.2,2.3c1.3,0,2.6-0.1,3.9-0.2l-14.5-12.3l22-24.7l15.8,14.2c0.3-2,0.5-3.9,0.5-5.9
				V412c0-3.9-0.7-7.8-2.1-11.4c-2.6-7-7.9-12.6-14.7-15.6C372.5,383.5,368.7,382.7,364.9,382.7z"/>
			
				<pattern  id="SVGID_00000084516798770229903540000010629705241302724480_" xlink:href="#_10_lpi_10_9" patternTransform="matrix(0.9526 -0.55 -0.55 -0.9526 -4887.9478 -19870.3887)"  class="st6">
			</pattern>
			<path style="fill:url(#SVGID_00000084516798770229903540000010629705241302724480_);" d="M495.8,473c-15.9,0-28.6-4.5-38-13.5
				s-14.1-22.4-14.1-39.8v-67.1h34v66.5c0,7.6,1.6,13.2,4.9,16.7s7.6,5.1,13.6,5.1s10.4-1.6,13.6-5c3.2-3.4,4.8-8.8,4.8-16.1v-67.3
				h33.9v66.4c0.1,7.9-1.1,15.8-3.6,23.3c-2.3,6.4-5.9,12.3-10.7,17.1c-4.8,4.7-10.6,8.2-17,10.3C510.2,472,503,473.1,495.8,473z"/>
			
				<pattern  id="SVGID_00000084497160195437619230000005171782792517594509_" xlink:href="#_10_lpi_10_9" patternTransform="matrix(0.9526 -0.55 -0.55 -0.9526 -4887.9478 -19870.3887)"  class="st6">
			</pattern>
			<path style="fill:url(#SVGID_00000084497160195437619230000005171782792517594509_);" d="M651.7,471.3l-9.9-24.4h-39.3l-10,24.4
				h-35.3l50.9-119.6h28.7l50.9,119.6H651.7z M629.1,415.8l-7-17.1l-7,17.1H629.1z"/>
			
				<pattern  id="SVGID_00000135676345068343771690000017494781124615816630_" xlink:href="#_10_lpi_10_9" patternTransform="matrix(0.9526 -0.55 -0.55 -0.9526 -4887.9478 -19870.3887)"  class="st6">
			</pattern>
			<path style="fill:url(#SVGID_00000135676345068343771690000017494781124615816630_);" d="M766.4,471.3l-23.3-34.8H732v34.8h-33.9
				V352.5h54.7c14.1,0,25.4,3.6,33.5,10.7c8.3,7.3,12.5,17.4,12.5,30.2v0.3c0,9.9-2.5,18.2-7.5,24.6c-3.6,4.6-8.1,8.5-13.3,11.2
				l28.6,41.8H766.4z M751.2,405.4c4.6,0,8.1-1,10.3-2.9c2.1-1.9,3.2-4.6,3-7.5v-0.3c0-4.8-1.7-6.7-3-7.7c-2.4-1.9-6-2.8-10.8-2.8
				H732v21.2H751.2z"/>
			
				<pattern  id="SVGID_00000156568402762624404550000002697203026344388537_" xlink:href="#_10_lpi_10_" patternTransform="matrix(0.9526 -0.55 -0.55 -0.9526 -4887.958 -19870.3789)"  class="st6">
			</pattern>
			<polygon style="fill:url(#SVGID_00000156568402762624404550000002697203026344388537_);" points="816.6,471.3 816.6,352.5 
				908.5,352.5 908.5,383.8 850.3,383.8 850.3,395.9 901.5,395.9 901.5,427.2 850.3,427.2 850.3,440 909.3,440 909.3,471.3 			"/>
			
				<pattern  id="SVGID_00000073687855935151717300000001361881343087840919_" xlink:href="#_10_lpi_10_9" patternTransform="matrix(0.9526 -0.55 -0.55 -0.9526 -4887.9478 -19870.3887)"  class="st6">
			</pattern>
			<path style="fill:url(#SVGID_00000073687855935151717300000001361881343087840919_);" d="M983,473.2c-8.3,0.1-16.5-1.6-24.2-4.8
				c-7.2-3-13.8-7.4-19.3-13c-5.5-5.6-9.8-12.2-12.8-19.4c-3.1-7.6-4.6-15.7-4.6-23.8v-0.3c-0.1-16.1,6.1-31.6,17.3-43.2
				c5.5-5.7,12.2-10.2,19.5-13.2c7.9-3.3,16.4-4.9,25-4.8c5,0,9.9,0.4,14.8,1.4c4.3,0.8,8.4,2.1,12.4,3.7c3.7,1.6,7.2,3.5,10.4,5.8
				c3.1,2.2,6,4.7,8.7,7.4l3.3,3.3l-21.6,24.9l-3.8-3.4c-3.6-3.3-7.5-6-11.8-8.2c-3.9-1.9-8.3-2.8-12.6-2.8
				c-7.2-0.1-14.2,2.9-19,8.3c-2.4,2.7-4.3,5.8-5.6,9.2c-1.4,3.6-2,7.5-2,11.4v0.3c0,3.9,0.7,7.8,2,11.5c1.3,3.4,3.1,6.6,5.5,9.3
				c4.8,5.4,11.7,8.5,19,8.4c5.4,0,9.9-1,13.4-2.8c4.3-2.3,8.2-5.2,11.8-8.6l3.5-3.3l22,22.2l-3.3,3.5c-2.9,3.1-6,6-9.2,8.6
				c-3.3,2.6-7,4.9-10.8,6.7c-4.1,1.9-8.4,3.4-12.9,4.3C993.2,472.7,988.1,473.2,983,473.2z"/>
		</g>
	</g>
</g>
</svg>
