<svg id="Layer_1" data-name="Layer 1" xmlns="http://www.w3.org/2000/svg" viewBox="0 0 119.81 119.81"><defs><style>.cls-1{fill:#eceff0;}.cls-2,.cls-8{fill:none;}.cls-3{fill:#8b8b8b;}.cls-4{fill:#343434;}.cls-5{fill:#393939;}.cls-6{fill:#151515;}.cls-7{fill:#8c8c8c;}.cls-8{stroke:#8c8c8c;stroke-linecap:round;stroke-linejoin:round;stroke-width:0;}</style></defs><circle class="cls-1" cx="60" cy="60" r="59.9" transform="translate(-12.28 104.51) rotate(-76.72)"/><path class="cls-2" d="M60,15.12a1.39,1.39,0,0,0-.15.19,1.39,1.39,0,0,1,.15-.19Z" transform="translate(-0.1 -0.1)"/><path class="cls-2" d="M60.44,48.5,60,48.33h0Z" transform="translate(-0.1 -0.1)"/><path class="cls-2" d="M33.44,59.14c-.32.54-.65,1.08-1,1.63v0C32.79,60.22,33.12,59.68,33.44,59.14Z" transform="translate(-0.1 -0.1)"/><path class="cls-3" d="M33.21,60.47l10-4.54,8-3.64,8.6-3.91.2-.07h0A2.85,2.85,0,0,0,60,48V15.41c0-.1,0-.19,0-.29h0a1.39,1.39,0,0,0-.15.19l-4.9,8.13L43,43.26,34.42,57.51l-1,1.63c-.32.54-.65,1.08-1,1.63Z" transform="translate(-0.1 -0.1)"/><path class="cls-4" d="M84.88,56.33Q82.66,52.67,80.46,49l-4.3-7.14Q74,38.2,71.74,34.54T67.4,27.33l-4.26-7-3-5,0-.05L60,15.12c0,.1,0,.19,0,.29V48a2.85,2.85,0,0,1,0,.29h0l0,0h0l.43.17.42.17,4.07,1.86L70.31,53l4.82,2.2L80,57.36l4.82,2.19,2.57,1.17.18.05a1.74,1.74,0,0,0-.1-.19Z" transform="translate(-0.1 -0.1)"/><path class="cls-5" d="M60,48.33h0l0,0h0l-.2.07-8.6,3.91-8,3.64-10,4.54-.74.3v0s0,.07,0,.08l3,1.76L59.79,77a2,2,0,0,0,.22.08V48.33Z" transform="translate(-0.1 -0.1)"/><path class="cls-6" d="M84.78,59.55,80,57.36l-4.83-2.19L70.31,53l-5.38-2.44-4.07-1.86-.42-.17L60,48.33V77.09h.05l2.71-1.61,3.85-2.29,4.8-2.82,4-2.39c1.8-1.07,3.62-2.13,5.43-3.19l3.39-2,3.24-1.91s0-.06,0-.09l-.18-.05Z" transform="translate(-0.1 -0.1)"/><path class="cls-7" d="M60,82.68c0-.11,0-.23,0-.34l-.53-.29L48.13,75.34l-14-8.25-1.65-1a1.79,1.79,0,0,0,.12.24l8.19,11.54,18.42,26c.23.32.48.64.72,1,0-.12,0-.23,0-.34Z" transform="translate(-0.1 -0.1)"/><polygon class="cls-7" points="32.42 66.04 32.42 66.04 32.43 66.04 32.43 66.03 32.42 66.04"/><path class="cls-4" d="M87.44,66.17l-.16.07L67.94,77.67,60,82.34c0,.11,0,.23,0,.34v21.84c0,.11,0,.22,0,.34a0,0,0,0,0,0,0l.06,0,.1-.14L83.82,71.37l3.66-5.17h0Z" transform="translate(-0.1 -0.1)"/><path class="cls-7" d="M32.49,66.11h0Z" transform="translate(-0.1 -0.1)"/><polygon class="cls-7" points="32.42 66.03 32.42 66.04 32.42 66.04 32.43 66.03 32.42 66.03"/><path class="cls-4" d="M87.44,66.17l0,0h0v-.06Z" transform="translate(-0.1 -0.1)"/><path class="cls-8" d="M60.06,104.85l-.06,0" transform="translate(-0.1 -0.1)"/></svg>